<?xml version="1.0" encoding="UTF-8"?>
<svg version="1.1" xmlns="http://www.w3.org/2000/svg" width="160" height="160">
<path d="M0 0 C4.87703685 2.85930227 8.47799158 7.10031926 10.5625 12.375 C10.82992554 15.49761963 10.82992554 15.49761963 10.85302734 19.21972656 C10.85974457 19.89996384 10.86646179 20.58020111 10.87338257 21.28105164 C10.89235156 23.52598416 10.89628661 25.77061735 10.8984375 28.015625 C10.90486784 29.5825818 10.91159637 31.1495374 10.91860962 32.7164917 C10.93058079 36.0016152 10.93429078 39.28663357 10.93310547 42.57177734 C10.93290266 46.76594745 10.9601653 50.95943705 10.99464989 55.1534462 C11.0169754 58.39126635 11.02094124 61.62892444 11.01988602 64.86681366 C11.022235 66.41206957 11.03101872 67.95733043 11.04655075 69.50251007 C11.18363274 84.55307349 11.18363274 84.55307349 6.5625 91.375 C4.30859375 93.43359375 4.30859375 93.43359375 2 94.8125 C1.23558594 95.28558594 0.47117188 95.75867188 -0.31640625 96.24609375 C-4.98411712 98.73038186 -9.26607036 99.06611272 -14.4375 98.375 C-21.53060154 96.03164942 -25.73716443 92.82074583 -29.4375 86.375 C-30.58541962 82.93124114 -30.57857034 80.2453651 -30.59863281 76.61206055 C-30.60359772 75.92875671 -30.60856262 75.24545288 -30.61367798 74.54144287 C-30.62827904 72.28152456 -30.63509852 70.02167647 -30.640625 67.76171875 C-30.64637862 66.18854267 -30.65213633 64.6153666 -30.65789795 63.04219055 C-30.66840241 59.74272333 -30.67424855 56.44328042 -30.67773438 53.14379883 C-30.68321468 48.92375873 -30.70723492 44.704042 -30.73570633 40.4841032 C-30.75436638 37.23351616 -30.75954012 33.98300645 -30.76107025 30.73237038 C-30.76409026 29.17709398 -30.77209677 27.62181874 -30.78525543 26.06659508 C-30.80238522 23.88619045 -30.80041917 21.70656838 -30.79394531 19.52612305 C-30.79759094 18.28718796 -30.80123657 17.04825287 -30.80499268 15.77177429 C-30.12224191 9.46103558 -27.1669328 5.44451194 -22.4375 1.375 C-16.06154432 -3.13482231 -7.03657405 -3.19115977 0 0 Z " fill="#E80E0F" transform="translate(135.4375,33.625)"/>
<path d="M0 0 C4.57436169 2.67394838 8.52809176 7.13354407 10.18548584 12.22015381 C10.75380055 15.16811375 10.76841355 17.97441239 10.78613281 20.97753906 C10.79574036 22.29280579 10.8053479 23.60807251 10.81524658 24.9631958 C10.82009561 26.39733709 10.82437418 27.83148041 10.828125 29.265625 C10.83388193 30.74289958 10.83963959 32.22017416 10.84539795 33.69744873 C10.8558933 36.79423367 10.86174521 39.89099276 10.86523438 42.98779297 C10.87070891 46.93969749 10.89472054 50.89125571 10.92320633 54.84305191 C10.94191039 57.89555836 10.94704247 60.94798279 10.94857025 64.00054169 C10.951581 65.45647825 10.95955574 66.91241392 10.97275543 68.36829376 C11.11468289 85.22904482 11.11468289 85.22904482 5.79296875 91.7421875 C-0.02707105 96.54056351 -4.56081472 98.97714748 -12.359375 98.75390625 C-17.8586403 98.06116934 -22.46575191 95.30359274 -26.375 91.5 C-29.69728072 86.49447261 -30.87589071 83.32413867 -30.87670898 77.19116211 C-30.88211197 76.4975206 -30.88751495 75.80387909 -30.89308167 75.08921814 C-30.90549206 72.81814644 -30.88913296 70.54836167 -30.87109375 68.27734375 C-30.8712489 66.68746372 -30.87274055 65.09758332 -30.87550354 63.50770569 C-30.87688402 60.18489749 -30.86438756 56.86252279 -30.84155273 53.53979492 C-30.81314564 49.2906436 -30.81591627 45.04221062 -30.82864285 40.79300594 C-30.83561228 37.51320814 -30.82779676 34.23357506 -30.81538582 30.95379829 C-30.81088522 29.38738195 -30.81052231 27.82094784 -30.81445122 26.25452995 C-30.81737659 24.06246822 -30.80079584 21.87138153 -30.77905273 19.67944336 C-30.77364975 18.4348082 -30.76824677 17.19017303 -30.76268005 15.90782166 C-30.10786363 10.15179275 -27.75672248 6.36383155 -23.375 2.6875 C-22.694375 2.10355469 -22.01375 1.51960938 -21.3125 0.91796875 C-15.66515137 -3.21507067 -6.21832549 -2.73028992 0 0 Z " fill="#E81515" transform="translate(44.375,33.5)"/>
<path d="M0 0 C5.60420179 3.42530291 8.87674289 7.4090218 10.89227295 13.71200562 C11.42997598 16.52077675 11.45193714 19.1966786 11.46972656 22.05712891 C11.47933411 23.30587799 11.48894165 24.55462708 11.49884033 25.84121704 C11.50369056 27.20273657 11.50796883 28.56425824 11.51171875 29.92578125 C11.51595982 30.96068254 11.51595982 30.96068254 11.52028656 32.01649094 C11.53526165 35.67196788 11.54450002 39.32740558 11.54882812 42.98291016 C11.55429158 46.7350879 11.57827884 50.48689887 11.60680008 54.23896217 C11.62555375 57.14400225 11.6306389 60.04895651 11.632164 62.95405197 C11.63516552 64.3357683 11.64310809 65.71748403 11.65634918 67.09914017 C11.82378538 85.92335801 11.82378538 85.92335801 6.59307861 91.82095337 C0.58181902 97.28686795 -4.34240759 98.41186783 -12.42578125 98.2578125 C-18.02785719 97.62121296 -21.26535638 95.41273766 -25.10484314 91.41503906 C-30.16818831 84.61517198 -29.39714708 76.71846179 -29.3203125 68.63671875 C-29.3211425 67.05305824 -29.32360681 65.46939783 -29.32762146 63.88574219 C-29.33046992 60.57720812 -29.31587276 57.26935458 -29.28833008 53.9609375 C-29.25424818 49.73763093 -29.26027418 45.51554009 -29.27899265 41.29217529 C-29.28960311 38.02512629 -29.28058838 34.75835614 -29.26560783 31.49133301 C-29.26045516 29.93494497 -29.26087212 28.37852745 -29.26715279 26.82214355 C-29.30964132 9.96962223 -29.30964132 9.96962223 -22.7890625 2.79296875 C-15.79190099 -2.04192212 -8.02339844 -3.31882229 0 0 Z " fill="#E51610" transform="translate(88.69140625,59.11328125)"/>
<path d="M0 0 C2.890625 1.53515625 2.890625 1.53515625 5 3 C4.25531915 10.74468085 4.25531915 10.74468085 1 14 C0.34 14 -0.32 14 -1 14 C-1.12375 15.27875 -1.2475 16.5575 -1.375 17.875 C-1.75 21.75 -1.75 21.75 -4 24 C-4.20534422 26.00868304 -4.20534422 26.00868304 -4.0625 28.25 C-3.99326513 30.9761231 -4.03580379 33.18299716 -4.5625 35.875 C-5.00759124 39.05422318 -4.65176182 41.17369613 -4.125 44.3125 C-3.71557932 47.82590071 -3.62425015 49.40072716 -5.5234375 52.4296875 C-6.8318519 53.92427944 -8.15469081 55.40637618 -9.4921875 56.875 C-11.19070105 58.85497144 -11.19070105 58.85497144 -11.0703125 61.125 C-10.84988281 62.1459375 -10.84988281 62.1459375 -10.625 63.1875 C-10 67 -10 67 -10.984375 68.83203125 C-12.375 70.5 -12.375 70.5 -15 73 C-15.33 73 -15.66 73 -16 73 C-16 70 -16 67 -16 64 C-18.18567823 67.27851735 -18.26456291 68.54942193 -18.4375 72.375 C-18.75281816 76.62616443 -19.11931714 79.65840788 -22 83 C-22.66 83 -23.32 83 -24 83 C-24.66 83.99 -25.32 84.98 -26 86 C-26.09291116 76.75059944 -26.16387156 67.50136092 -26.20724869 58.25159454 C-26.22807353 53.95597279 -26.25629695 49.66067165 -26.30175781 45.36523438 C-26.34539898 41.21549859 -26.36917545 37.0660701 -26.37950897 32.91612244 C-26.38686773 31.33734809 -26.40123752 29.75858949 -26.42292023 28.1799469 C-26.64785967 11.1155088 -26.64785967 11.1155088 -20.09765625 3.90625 C-13.73698657 -0.48883846 -7.6179643 -1.27294999 0 0 Z " fill="#EF291B" transform="translate(86,58)"/>
<path d="M0 0 C5.23872588 2.43226559 9.39841957 6.79683915 12 12 C12.68632698 19.41458163 12.72001792 25.06972107 8 31 C3.74757849 35.32009931 -0.48947362 36.83256928 -6.51171875 37.125 C-11.38712905 36.88008143 -15.10102729 35.71329538 -18.7578125 32.4140625 C-22.61485827 28.14708916 -24.76518337 24.48905633 -25.3125 18.6875 C-24.77128714 12.30118825 -23.35726297 7.84679359 -18.4375 3.5625 C-12.70920633 -0.95854038 -7.14566967 -0.61871042 0 0 Z " fill="#CF030A" transform="translate(86,3)"/>
<path d="M0 0 C3.72813965 2.16372197 6.04367195 4.91161144 8.5625 8.375 C7.5625 10.375 7.5625 10.375 5.5625 11.375 C5.5625 9.725 5.5625 8.075 5.5625 6.375 C4.2425 6.375 2.9225 6.375 1.5625 6.375 C1.52125 7.035 1.48 7.695 1.4375 8.375 C0.17555812 12.70165788 -2.36758609 16.09336789 -5.4375 19.375 C-6.0975 19.375 -6.7575 19.375 -7.4375 19.375 C-7.1075 20.365 -6.7775 21.355 -6.4375 22.375 C-5.1175 21.715 -3.7975 21.055 -2.4375 20.375 C-3.22125 21.261875 -4.005 22.14875 -4.8125 23.0625 C-13.25902909 33.00664063 -20.04117031 42.45661622 -25.4375 54.375 C-26.48199911 51.24150268 -26.37173645 50.38531744 -25.4375 47.375 C-25.7675 47.375 -26.0975 47.375 -26.4375 47.375 C-27.0975 44.735 -27.7575 42.095 -28.4375 39.375 C-29.0975 40.365 -29.7575 41.355 -30.4375 42.375 C-30.51203622 38.2124388 -30.56628254 34.0502382 -30.60229492 29.88720703 C-30.61731825 28.47307563 -30.63774305 27.05899032 -30.66381836 25.64501953 C-30.70048954 23.60437603 -30.71729036 21.56435208 -30.73046875 19.5234375 C-30.7461792 18.29802246 -30.76188965 17.07260742 -30.77807617 15.81005859 C-30.20453422 10.02530217 -27.82859791 6.24669768 -23.4375 2.5625 C-22.756875 1.97855469 -22.07625 1.39460938 -21.375 0.79296875 C-15.67799265 -3.37641365 -6.21641013 -2.85907412 0 0 Z " fill="#FE7421" transform="translate(44.4375,33.625)"/>
<path d="M0 0 C1.36125 0.7425 1.36125 0.7425 2.75 1.5 C1.76 2.16 0.77 2.82 -0.25 3.5 C-1.57022077 6.39431421 -1.57022077 6.39431421 -2.6875 9.75 C-5.3307192 17.00683818 -5.3307192 17.00683818 -7.5625 20.125 C-9.53960357 22.42201262 -9.53960357 22.42201262 -9.25 25.5 C-8.26 24.84 -7.27 24.18 -6.25 23.5 C-7.94960179 27.42732844 -10.55156845 30.6093036 -13.1875 33.9375 C-16.13024074 37.65983144 -18.90607 41.36137773 -21.25 45.5 C-21.745 44.015 -21.745 44.015 -22.25 42.5 C-22.91 43.82 -23.57 45.14 -24.25 46.5 C-24.91 46.5 -25.57 46.5 -26.25 46.5 C-26.91 43.53 -27.57 40.56 -28.25 37.5 C-28.25 53.67 -28.25 69.84 -28.25 86.5 C-30.68505269 82.84742096 -30.50843685 81.09060607 -30.5246582 76.73706055 C-30.52976913 76.05375671 -30.53488007 75.37045288 -30.54014587 74.66644287 C-30.55405062 72.4064458 -30.55308403 70.14675353 -30.55078125 67.88671875 C-30.55466866 66.31354153 -30.55900343 64.74036536 -30.56376648 63.16719055 C-30.57123128 59.86769207 -30.57093626 56.56830057 -30.56567383 53.26879883 C-30.55988902 49.04872927 -30.57678468 44.82910001 -30.6000185 40.6091032 C-30.61478302 37.35849971 -30.61562368 34.10800146 -30.61250877 30.85737038 C-30.61302096 29.3021031 -30.61823939 27.74682977 -30.62832069 26.19159508 C-30.64071631 24.01115115 -30.63387483 21.83155435 -30.62231445 19.65112305 C-30.62294388 18.41218796 -30.6235733 17.17325287 -30.6242218 15.89677429 C-29.92917138 9.58787033 -26.98027359 5.57023541 -22.25 1.5 C-15.96405286 -2.94615774 -6.99838453 -2.99319909 0 0 Z " fill="#FE8F27" transform="translate(135.25,33.5)"/>
<path d="M0 0 C0.33 0 0.66 0 1 0 C1.1968999 2.35371114 1.38270974 4.7074695 1.5625 7.0625 C1.66691406 8.37347656 1.77132812 9.68445313 1.87890625 11.03515625 C2.02796854 15.91574428 1.66761177 20.23279237 -0.0625 24.8125 C-0.96394915 27.8774271 -1.04095714 29.8539624 -0.9375 33 C-0.83696939 37.47026107 -1.65330258 40.11892349 -4 44 C-4.268125 44.825 -4.53625 45.65 -4.8125 46.5 C-6.47446642 49.99887667 -8.96599869 52.60083049 -12 55 C-12.66 55 -13.32 55 -14 55 C-18.69861769 44.56906872 -15.71391246 32.3864469 -12 22 C-8.77181594 14.27244781 -4.8686746 6.82034157 0 0 Z " fill="#FE4E15" transform="translate(128,71)"/>
<path d="M0 0 C1.051875 -0.01417969 2.10375 -0.02835938 3.1875 -0.04296875 C6 0.1875 6 0.1875 9 2.1875 C8.34 2.1875 7.68 2.1875 7 2.1875 C6.67 3.1775 6.34 4.1675 6 5.1875 C4.7934375 6.363125 4.7934375 6.363125 3.5625 7.5625 C0.69203742 10.50297386 -1 13.0056758 -1 17.1875 C-2 20.1875 -2 20.1875 -4.25 22.375 C-7.01104986 25.19880099 -8.77196493 27.90649645 -10.69140625 31.3203125 C-12.19374523 33.46394841 -13.84744828 34.72212652 -16 36.1875 C-16.12846313 35.34771606 -16.12846313 35.34771606 -16.25952148 34.4909668 C-16.64948061 31.95188792 -17.04344516 29.41344632 -17.4375 26.875 C-17.63956055 25.55338867 -17.63956055 25.55338867 -17.84570312 24.20507812 C-17.97783203 23.35751953 -18.10996094 22.50996094 -18.24609375 21.63671875 C-18.36654053 20.85643311 -18.4869873 20.07614746 -18.61108398 19.2722168 C-18.98488611 17.00470203 -18.98488611 17.00470203 -20 14.1875 C-18.01153299 8.35466344 -13.85737209 4.74239127 -9 1.1875 C-5.79226388 0.11825463 -3.37015182 0.02065044 0 0 Z " fill="#FE9C2B" transform="translate(34,31.8125)"/>
<path d="M0 0 C4.7109375 -0.25 4.7109375 -0.25 7.3125 2 C7.869375 2.66 8.42625 3.32 9 4 C8.15120142 9.09279147 6.8078811 11.46805232 3 15 C-0.79752303 18.54661526 -1.63349722 20.96102101 -3 26 C-4.88655783 28.83631234 -6.9261773 31.52534079 -8.98046875 34.2421875 C-11.71696111 37.97906101 -13.85898487 41.9032499 -16 46 C-17.03738158 47.93979771 -18.07918769 49.87723457 -19.125 51.8125 C-19.60195312 52.70582031 -20.07890625 53.59914062 -20.5703125 54.51953125 C-21.90401796 56.83347379 -23.39404778 58.87222577 -25 61 C-25.71162443 62.64797236 -26.39031953 64.31165408 -27 66 C-27.33 66 -27.66 66 -28 66 C-28 55.11 -28 44.22 -28 33 C-25.60236815 35.39763185 -25.65719414 36.33273498 -25.375 39.625 C-25.30023438 40.44226563 -25.22546875 41.25953125 -25.1484375 42.1015625 C-25.09945312 42.72804687 -25.05046875 43.35453125 -25 44 C-24.34 44 -23.68 44 -23 44 C-22.34 42.35 -21.68 40.7 -21 39 C-20.67 39.99 -20.34 40.98 -20 42 C-19.36384766 40.948125 -19.36384766 40.948125 -18.71484375 39.875 C-14.92803255 33.74952078 -10.94096907 28.24133194 -6 23 C-6.99 23.33 -7.98 23.66 -9 24 C-8.57654499 19.65958612 -7.39320459 16.77342615 -5.12109375 13.078125 C-2.89223921 8.94658976 -1.50758798 4.43455401 0 0 Z " fill="#F92612" transform="translate(134,36)"/>
<path d="M0 0 C1.32 0.66 2.64 1.32 4 2 C4 23.10555698 -1.9791973 45.13214196 -15 62 C-17 59 -17 59 -16.8203125 56.5703125 C-15.91977483 53.74862781 -14.73997089 52.15633648 -12.875 49.875 C-9.62040322 45.2134279 -9.76024107 42.25839042 -10.62890625 36.77734375 C-11.80068398 28.0075125 -9.46814113 18.06190701 -6 10 C-4.70644173 8.62804426 -3.37701298 7.28817344 -2 6 C-0.73215876 2.86649283 -0.73215876 2.86649283 0 0 Z " fill="#FE6A19" transform="translate(91,62)"/>
<path d="M0 0 C0.33 0 0.66 0 1 0 C1.06983066 8.17182364 1.1229777 16.34352044 1.15543652 24.51556969 C1.17102331 28.3111063 1.19213188 32.1064372 1.22631836 35.90185547 C1.25916373 39.57178362 1.27690541 43.24151522 1.28463173 46.91157913 C1.29013047 48.30447097 1.30086686 49.69735333 1.31719017 51.09016037 C1.5300247 70.02136387 1.5300247 70.02136387 -3.71565247 75.9336853 C-5.41001295 77.47499583 -7.06835906 78.7703963 -9 80 C-9.59425781 80.37898438 -10.18851563 80.75796875 -10.80078125 81.1484375 C-13.84625366 82.32767904 -16.49795509 82.1900409 -19.75 82.125 C-20.92046875 82.10695313 -22.0909375 82.08890625 -23.296875 82.0703125 C-24.18890625 82.04710937 -25.0809375 82.02390625 -26 82 C-25.360625 81.773125 -24.72125 81.54625 -24.0625 81.3125 C-21.76461545 80.18655055 -21.76461545 80.18655055 -21.45703125 77.71875 C-21.30621094 76.8215625 -21.15539062 75.924375 -21 75 C-19.51171875 72.28125 -19.51171875 72.28125 -17.6875 69.5 C-16.79611328 68.12328125 -16.79611328 68.12328125 -15.88671875 66.71875 C-10.68971963 59.22990654 -10.68971963 59.22990654 -7 58 C-6.67 58.66 -6.34 59.32 -6 60 C-3.96758273 59.36020151 -3.96758273 59.36020151 -2 58 C-1.04383059 54.5195907 -0.85475095 51.16294953 -0.79467773 47.56713867 C-0.77473251 46.50641647 -0.75478729 45.44569427 -0.73423767 44.35282898 C-0.71752518 43.2193251 -0.70081268 42.08582123 -0.68359375 40.91796875 C-0.66281265 39.74865311 -0.64203156 38.57933746 -0.62062073 37.37458801 C-0.55532586 33.64561747 -0.49633341 29.91657753 -0.4375 26.1875 C-0.39429571 23.65689391 -0.35068081 21.1262948 -0.30664062 18.59570312 C-0.199665 12.39720842 -0.09786152 6.19864494 0 0 Z " fill="#F89261" transform="translate(99,75)"/>
<path d="M0 0 C2.31 0.33 4.62 0.66 7 1 C6.01 1.66 5.02 2.32 4 3 C2.67977923 5.89431421 2.67977923 5.89431421 1.5625 9.25 C-1.0807192 16.50683818 -1.0807192 16.50683818 -3.3125 19.625 C-5.28960357 21.92201262 -5.28960357 21.92201262 -5 25 C-4.01 24.34 -3.02 23.68 -2 23 C-3.69960179 26.92732844 -6.30156845 30.1093036 -8.9375 33.4375 C-11.88024074 37.15983144 -14.65607 40.86137773 -17 45 C-17.495 43.515 -17.495 43.515 -18 42 C-18.66 43.32 -19.32 44.64 -20 46 C-20.66 46 -21.32 46 -22 46 C-22.66 43.03 -23.32 40.06 -24 37 C-24 53.17 -24 69.34 -24 86 C-26.44402277 82.33396585 -26.25320539 80.56040644 -26.25878906 76.18945312 C-26.2622937 75.50133041 -26.26579834 74.8132077 -26.26940918 74.10423279 C-26.27821112 71.82980255 -26.27238291 69.5556834 -26.265625 67.28125 C-26.2669721 65.70088644 -26.268913 64.12052328 -26.27142334 62.54016113 C-26.27437251 59.22806859 -26.27008364 55.91608392 -26.26074219 52.60400391 C-26.24934772 48.35681827 -26.2559083 44.1098854 -26.26788712 39.86270905 C-26.27511132 36.59936618 -26.27281522 33.33608331 -26.26763153 30.07273865 C-26.26629658 28.5066271 -26.26793735 26.94051011 -26.27259064 25.37440491 C-26.27766511 23.18630525 -26.26993299 20.99861595 -26.25878906 18.81054688 C-26.25719788 17.56494995 -26.25560669 16.31935303 -26.25396729 15.03601074 C-26 12 -26 12 -24 9 C-24.02320312 10.19238281 -24.04640625 11.38476562 -24.0703125 12.61328125 C-24.08907178 14.17968124 -24.10727181 15.746088 -24.125 17.3125 C-24.14175781 18.09818359 -24.15851563 18.88386719 -24.17578125 19.69335938 C-24.18222656 20.45068359 -24.18867187 21.20800781 -24.1953125 21.98828125 C-24.20578613 22.68477783 -24.21625977 23.38127441 -24.22705078 24.09887695 C-24.10574595 26.331173 -24.10574595 26.331173 -22 29 C-21.04104332 33.01018249 -20.94469534 36.01329349 -22 40 C-19.6468034 38.39782359 -17.83036023 37.13456095 -16 35 C-15.35326825 31.43724136 -15.35326825 31.43724136 -15.26953125 29.0546875 C-14.80212109 25.49153175 -12.90943938 23.00881357 -11 20 C-9.38450531 17.14568802 -9.38450531 17.14568802 -9 14 C-8.01451152 12.98569607 -7.01180513 11.98805383 -6 11 C-5.08756447 9.69199993 -4.21283976 8.35699201 -3.375 7 C-2.94960937 6.319375 -2.52421875 5.63875 -2.0859375 4.9375 C-0.85937492 2.89142634 -0.85937492 2.89142634 0 0 Z " fill="#FC693A" transform="translate(131,34)"/>
<path d="M0 0 C0.33 0 0.66 0 1 0 C1.33 2.31 1.66 4.62 2 7 C2.33 7 2.66 7 3 7 C3.18451025 18.52164009 3.18451025 18.52164009 2 24 C1.38125 24.144375 0.7625 24.28875 0.125 24.4375 C-2.03258322 24.93152225 -2.03258322 24.93152225 -4 26 C-4.33 25.34 -4.66 24.68 -5 24 C-10.87108913 29.53559832 -17.49178411 36.85563421 -19 45 C-16.69 45 -14.38 45 -12 45 C-12 45.33 -12 45.66 -12 46 C-14.06183633 46.08150744 -16.12461349 46.1394194 -18.1875 46.1875 C-19.91033203 46.23970703 -19.91033203 46.23970703 -21.66796875 46.29296875 C-25.27039199 45.97622579 -27.09366839 45.08533398 -30 43 C-27.45616999 37.48836831 -24.94680361 33.41631544 -19.6875 30.25 C-13.96700164 26.64400928 -9.40085385 21.44153072 -7.3359375 14.89453125 C-7.07407603 13.60832932 -6.82622769 12.31918002 -6.59375 11.02734375 C-5.38466655 6.89896013 -2.65340409 3.34189669 0 0 Z " fill="#FD3E19" transform="translate(96,110)"/>
<path d="M0 0 C1.32 0 2.64 0 4 0 C4.30094691 5.11609741 4.02990459 7.85913039 1 12 C0.32710937 12.94552734 0.32710937 12.94552734 -0.359375 13.91015625 C-2.58767977 16.98268988 -4.77715874 19.78272977 -7.5 22.4375 C-11.5621149 26.60116777 -15.15094647 31.45283941 -17 37 C-17.66 37 -18.32 37 -19 37 C-19.17015625 37.58007812 -19.3403125 38.16015625 -19.515625 38.7578125 C-21.0855296 43.81824966 -23.0495817 47.57437254 -26 52 C-26.89703403 54.35915998 -27.66195916 56.72731631 -28.38671875 59.14453125 C-29 61 -29 61 -30 62 C-30.23678716 64.69235776 -30.42198025 67.36498156 -30.5625 70.0625 C-30.60568359 70.82111328 -30.64886719 71.57972656 -30.69335938 72.36132812 C-30.79973633 74.24065438 -30.90039934 76.12030244 -31 78 C-31.33 78 -31.66 78 -32 78 C-32.02475223 72.11011053 -32.04288482 66.22025146 -32.05493164 60.33032227 C-32.05995478 58.32738721 -32.06677445 56.32445581 -32.07543945 54.3215332 C-32.08759345 51.43960669 -32.09324857 48.55772875 -32.09765625 45.67578125 C-32.10281754 44.78288895 -32.10797882 43.88999664 -32.11329651 42.970047 C-32.113667 38.8472736 -32.04768418 35.02035208 -31 31 C-28.47613098 33.96280277 -27.60357521 36.17735697 -27 40 C-26.67 40.66 -26.34 41.32 -26 42 C-26 42.33 -26 42.66 -26 43 C-25.43345703 41.92685547 -25.43345703 41.92685547 -24.85546875 40.83203125 C-20.72231727 33.34976873 -15.98800255 27.10796425 -10.35546875 20.71484375 C-7.93847538 18.04453527 -7.93847538 18.04453527 -6 15 C-6.99 15.66 -7.98 16.32 -9 17 C-9 13 -9 13 -6.75 10.625 C-5.8425 9.75875 -4.935 8.8925 -4 8 C-1.04042062 4.34815827 -1.04042062 4.34815827 0 0 Z " fill="#F73222" transform="translate(46,40)"/>
<path d="M0 0 C2.58550279 1.05540132 3.91715784 2.09568717 6 4 C2.79170694 6.65829996 -0.41915967 8.88263354 -4 11 C-4.95777344 11.60199219 -5.91554688 12.20398438 -6.90234375 12.82421875 C-7.90394531 13.43910156 -8.90554687 14.05398437 -9.9375 14.6875 C-10.93652344 15.31011719 -11.93554688 15.93273438 -12.96484375 16.57421875 C-16.2655476 18.12474244 -18.40051706 18.28431087 -22 18 C-22.33 20.31 -22.66 22.62 -23 25 C-25.51675702 21.22486447 -25.36808778 19.4906709 -25 15 C-23.60629314 8.43690772 -20.44161654 4.78946308 -15 1 C-10.59444115 -1.20277942 -4.79471309 -0.44750656 0 0 Z " fill="#FE741E" transform="translate(86,3)"/>
<path d="M0 0 C4.15557361 8.31114722 0.13011396 25.50776754 -1.9765625 34.2890625 C-3.51676605 38.36883833 -5.2145675 39.90593096 -9 42 C-9.66 42 -10.32 42 -11 42 C-11.83402078 26.96445878 -8.57472366 14.09844522 -1 1 C-0.67 0.67 -0.34 0.34 0 0 Z " fill="#FE6919" transform="translate(32,79)"/>
<path d="M0 0 C2.375 0 2.375 0 5 1 C8.94221248 4.94221248 9.24346448 7.83941818 9.25 13.375 C9.1861054 15.25076302 9.10914609 17.12632538 9 19 C8.67 19 8.34 19 8 19 C7.67 15.7 7.34 12.4 7 9 C6.01 9 5.02 9 4 9 C2.3122919 10.76401402 2.3122919 10.76401402 0.8125 13 C0.01779297 14.11375 0.01779297 14.11375 -0.79296875 15.25 C-1.19128906 15.8275 -1.58960937 16.405 -2 17 C-2.66 16.67 -3.32 16.34 -4 16 C-5.90010348 16.82425289 -5.90010348 16.82425289 -8 18 C-11.52186425 19.62547581 -14.11761822 20.22185039 -18 20 C-15.59310197 17.27324841 -13.07528977 15.88033404 -9.8125 14.3125 C-8.46091797 13.65701172 -8.46091797 13.65701172 -7.08203125 12.98828125 C-6.39496094 12.66214844 -5.70789063 12.33601563 -5 12 C-8.62784233 11.81039152 -10.92644116 12.15655858 -14.125 13.875 C-14.78757812 14.22304688 -15.45015625 14.57109375 -16.1328125 14.9296875 C-17.7970124 15.88364309 -19.40393915 16.93595943 -21 18 C-23.6875 17.625 -23.6875 17.625 -26 17 C-26 15.35 -26 13.7 -26 12 C-24.63875 12.2165625 -24.63875 12.2165625 -23.25 12.4375 C-17.09946982 12.48770841 -11.99113659 8.17555966 -7 5 C-6.09507813 4.47019531 -5.19015625 3.94039062 -4.2578125 3.39453125 C-1.91167843 2.06502873 -1.91167843 2.06502873 0 0 Z M-1 10 C-1.66 11.32 -2.32 12.64 -3 14 C-2.01 13.34 -1.02 12.68 0 12 C-0.33 11.34 -0.66 10.68 -1 10 Z " fill="#FE3E16" transform="translate(89,8)"/>
<path d="M0 0 C1.41022938 2.82045877 0.71694726 4.59080486 0.1875 7.6875 C-0.87261229 14.10547711 -1.7309433 20.52682602 -2.53515625 26.98046875 C-3 30 -3 30 -4 32 C-3.91621094 32.87527344 -3.83242188 33.75054687 -3.74609375 34.65234375 C-3.23264957 40.11824951 -3.08405168 43.63815066 -6.22265625 48.3046875 C-8.63909933 51.05629913 -11.2660836 53.5638852 -14 56 C-13.67 56.99 -13.34 57.98 -13 59 C-14.9375 58.25 -14.9375 58.25 -17 57 C-17.62890625 54.921875 -17.62890625 54.921875 -18 53 C-16.906875 52.46375 -15.81375 51.9275 -14.6875 51.375 C-10.05831209 47.96155841 -9.44524365 43.96767796 -8.4609375 38.49609375 C-7.89930024 33.98524879 -7.87336846 29.48496669 -7.80200195 24.94458008 C-7.52685709 8.04190164 -7.52685709 8.04190164 -1.49609375 1.34375 C-1.00238281 0.9003125 -0.50867188 0.456875 0 0 Z " fill="#FE4714" transform="translate(39,68)"/>
<path d="M0 0 C2.3125 0.9375 2.3125 0.9375 4.3125 2.9375 C3.52875 3.164375 2.745 3.39125 1.9375 3.625 C-1.37382694 5.28066347 -1.523217 6.52781406 -2.6875 9.9375 C-3.6668879 10.95769573 -4.66645449 11.95899805 -5.6875 12.9375 C-6.0175 13.5975 -6.3475 14.2575 -6.6875 14.9375 C-7.77220931 17.10691862 -8.94669124 18.26364543 -10.6875 19.9375 C-12.65853045 22.27809866 -14.45704917 24.54244144 -16 27.1875 C-18.55918684 31.35802671 -21.64494872 35.11138757 -24.6875 38.9375 C-26.6875 35.9375 -26.6875 35.9375 -27.6875 32.9375 C-28.0175 35.9075 -28.3475 38.8775 -28.6875 41.9375 C-29.0175 41.9375 -29.3475 41.9375 -29.6875 41.9375 C-29.7453304 37.47922074 -29.78103855 33.0210372 -29.8125 28.5625 C-29.82925781 27.29148437 -29.84601562 26.02046875 -29.86328125 24.7109375 C-29.86972656 23.49921875 -29.87617188 22.2875 -29.8828125 21.0390625 C-29.89852295 19.35804443 -29.89852295 19.35804443 -29.91455078 17.64306641 C-29.6875 14.9375 -29.6875 14.9375 -27.6875 12.9375 C-26.6975 19.5375 -25.7075 26.1375 -24.6875 32.9375 C-21.5305157 29.7805157 -20.08076159 28.17285394 -18.1875 24.4375 C-16.37499815 21.01450889 -14.48645879 18.63279365 -11.6875 15.9375 C-11.6875 14.9475 -11.6875 13.9575 -11.6875 12.9375 C-11.0275 11.9475 -10.3675 10.9575 -9.6875 9.9375 C-9.419375 9.15375 -9.15125 8.37 -8.875 7.5625 C-7.01921029 3.46022801 -4.80684157 -0.11178701 0 0 Z " fill="#FE8325" transform="translate(43.6875,34.0625)"/>
<path d="M0 0 C2 3 2 3 1.9375 4.8125 C-0.28820319 10.00580744 -3.33008616 13.00783577 -8.375 15.375 C-15.06498395 17.82799411 -21.99009388 17.33647549 -29 17 C-29.33 17.66 -29.66 18.32 -30 19 C-32.1519437 15.77208445 -32.20086443 14.71599191 -32 11 C-30.9171875 11.0928125 -30.9171875 11.0928125 -29.8125 11.1875 C-26.39190832 10.95946055 -24.84502214 9.87355117 -22 8 C-17.74501251 5.55564549 -14.91920833 4.64862798 -10 5 C-12.40689803 7.72675159 -14.92471023 9.11966596 -18.1875 10.6875 C-19.53908203 11.34298828 -19.53908203 11.34298828 -20.91796875 12.01171875 C-21.94857422 12.50091797 -21.94857422 12.50091797 -23 13 C-17.00708997 12.58669586 -13.74963401 11.68096635 -9 8 C-8.67 8.33 -8.34 8.66 -8 9 C-7.59007813 8.4946875 -7.18015625 7.989375 -6.7578125 7.46875 C-6.21898438 6.8190625 -5.68015625 6.169375 -5.125 5.5 C-4.32449219 4.52546875 -4.32449219 4.52546875 -3.5078125 3.53125 C-3.01023437 3.0259375 -2.51265625 2.520625 -2 2 C-1.34 2 -0.68 2 0 2 C0 1.34 0 0.68 0 0 Z M-7 4 C-7 4.99 -7 5.98 -7 7 C-7.99 7.495 -7.99 7.495 -9 8 C-8.34 6.68 -7.68 5.36 -7 4 Z " fill="#FE2F12" transform="translate(95,14)"/>
<path d="M0 0 C0.33 0.66 0.66 1.32 1 2 C0.566875 3.2375 0.566875 3.2375 0.125 4.5 C-2.14710382 11.56876745 -2.13725711 18.99977763 -2.3125 26.375 C-2.34230957 27.06513184 -2.37211914 27.75526367 -2.40283203 28.46630859 C-2.44233422 31.89963748 -2.29070042 33.63917184 -0.10546875 36.3515625 C0.93673828 37.16753906 0.93673828 37.16753906 2 38 C2.66 38.66 3.32 39.32 4 40 C6.36509361 40.30059943 8.74441881 40.49515012 11.125 40.625 C12.40632813 40.69976562 13.68765625 40.77453125 15.0078125 40.8515625 C15.99523437 40.90054688 16.98265625 40.94953125 18 41 C14.0141043 43.21831446 10.4940347 43.5470267 6 43 C0.40048519 41.10185939 -3.95143191 38.62256302 -7.6171875 33.9296875 C-9.52283701 29.89229446 -9.43939346 26.40737456 -9.375 22 C-9.38660156 21.2059375 -9.39820313 20.411875 -9.41015625 19.59375 C-9.38647025 14.8565503 -8.95086464 11.88633689 -6 8 C-5.47019531 7.26136719 -4.94039062 6.52273437 -4.39453125 5.76171875 C-3.61142578 4.73498047 -3.61142578 4.73498047 -2.8125 3.6875 C-2.28269531 2.99011719 -1.75289062 2.29273437 -1.20703125 1.57421875 C-0.80871094 1.05472656 -0.41039062 0.53523438 0 0 Z " fill="#E30D0F" transform="translate(24,89)"/>
<path d="M0 0 C2.890625 1.53515625 2.890625 1.53515625 5 3 C4.01 3.495 4.01 3.495 3 4 C2.401875 3.79375 1.80375 3.5875 1.1875 3.375 C-1.07435504 2.78223243 -1.07435504 2.78223243 -3.3125 4 C-7.3047219 6.97095584 -11.74290333 10.48580666 -14 15 C-16.30965848 16.05352843 -18.6429774 17.05719096 -21 18 C-21 15.36 -21 12.72 -21 10 C-21.99 10.33 -22.98 10.66 -24 11 C-22.33148606 5.9773452 -20.18593865 3.94421669 -15.77734375 1.171875 C-10.69454311 -0.97276662 -5.38849596 -0.9004093 0 0 Z " fill="#FF672B" transform="translate(86,58)"/>
<path d="M0 0 C2.31 0.33 4.62 0.66 7 1 C6.01 1.66 5.02 2.32 4 3 C2.67977923 5.89431421 2.67977923 5.89431421 1.5625 9.25 C-1.0807192 16.50683818 -1.0807192 16.50683818 -3.3125 19.625 C-5.28960357 21.92201262 -5.28960357 21.92201262 -5 25 C-4.01 24.34 -3.02 23.68 -2 23 C-3.66751148 26.94139078 -6.22710649 29.7892812 -9 33 C-9 31 -9 29 -9 27 C-10.98 28.32 -12.96 29.64 -15 31 C-14.39050431 26.8554293 -12.96084772 23.6863937 -11 20 C-9.40652971 17.14344283 -9.40652971 17.14344283 -9 14 C-8.01451152 12.98569607 -7.01180513 11.98805383 -6 11 C-5.08756447 9.69199993 -4.21283976 8.35699201 -3.375 7 C-2.73691406 5.9790625 -2.73691406 5.9790625 -2.0859375 4.9375 C-0.85937492 2.89142634 -0.85937492 2.89142634 0 0 Z " fill="#FE701E" transform="translate(131,34)"/>
<path d="M0 0 C0 0.33 0 0.66 0 1 C-1.423125 1.12375 -1.423125 1.12375 -2.875 1.25 C-4.421875 1.62125 -4.421875 1.62125 -6 2 C-6.29390625 2.59039062 -6.5878125 3.18078125 -6.890625 3.7890625 C-8.3523328 6.70218439 -10.34339211 8.08919662 -12.875 10.125 C-17.92313586 14.50929141 -20.21363345 18.61440612 -22 25 C-22.30550781 24.37867187 -22.61101563 23.75734375 -22.92578125 23.1171875 C-23.95565712 21.00441254 -23.95565712 21.00441254 -25.1875 19.125 C-26.42394229 15.89122785 -26.08158256 14.30837018 -25 11 C-18.15914932 1.09580135 -11.6499993 -0.50898055 0 0 Z " fill="#FEA639" transform="translate(40,32)"/>
<path d="M0 0 C4.7109375 -0.25 4.7109375 -0.25 7.3125 2 C7.869375 2.66 8.42625 3.32 9 4 C7.80449427 9.61398304 5.90045339 12.84572184 1.6875 16.8125 C1.21376953 17.28880859 0.74003906 17.76511719 0.25195312 18.25585938 C-2.61905965 21.04832187 -5.17771295 22.79552703 -9 24 C-8.57654499 19.65958612 -7.39320459 16.77342615 -5.12109375 13.078125 C-2.89223921 8.94658976 -1.50758798 4.43455401 0 0 Z " fill="#FE451A" transform="translate(134,36)"/>
<path d="M0 0 C0.80824219 0.11085937 1.61648437 0.22171875 2.44921875 0.3359375 C3.37154297 0.47902344 3.37154297 0.47902344 4.3125 0.625 C3.03644362 5.62829451 1.32375888 7.96806531 -2.625 11.25 C-6.802223 14.7566526 -9.67625099 18.10812649 -12.6875 22.625 C-12.6875 6.625 -12.6875 6.625 -10.375 4.0625 C-6.64260283 0.67730256 -4.97012712 -0.72030828 0 0 Z " fill="#FEAF43" transform="translate(120.6875,33.375)"/>
<path d="M0 0 C1.08744103 3.26232308 0.85727671 3.85908716 0 7 C-0.21749051 10.30987652 -0.18511927 13.62114999 -0.1875 16.9375 C-0.19974609 17.83146484 -0.21199219 18.72542969 -0.22460938 19.64648438 C-0.23677127 25.10717342 -0.19045207 29.55680346 3.625 33.8125 C4.305625 34.4003125 4.305625 34.4003125 5 35 C4.01 35.495 4.01 35.495 3 36 C-0.73817441 33.67402481 -3.65358739 31.75153178 -6 28 C-6.75740367 24.70442678 -6.82076183 21.37161535 -7 18 C-7.09925781 17.1440625 -7.19851562 16.288125 -7.30078125 15.40625 C-7.61188631 11.45338568 -7.64085866 8.98692233 -5.4375 5.59375 C-3.7070189 3.61207003 -1.94176238 1.77334421 0 0 Z " fill="#DC0B12" transform="translate(113,94)"/>
<path d="M0 0 C1.23494716 2.46989432 0.98750123 3.73703814 0.73046875 6.47265625 C0.64603516 7.37306641 0.56160156 8.27347656 0.47460938 9.20117188 C0.33249023 10.6175293 0.33249023 10.6175293 0.1875 12.0625 C0.10435547 12.97966797 0.02121094 13.89683594 -0.06445312 14.84179688 C-1.71917247 31.88419833 -1.71917247 31.88419833 -7 37 C-7.66 37 -8.32 37 -9 37 C-9.99390726 23.9687715 -6.58771239 11.23150965 0 0 Z " fill="#FE7F1D" transform="translate(121,83)"/>
<path d="M0 0 C0.33 0 0.66 0 1 0 C1.18451025 11.52164009 1.18451025 11.52164009 0 17 C-0.61875 17.144375 -1.2375 17.28875 -1.875 17.4375 C-4.03258322 17.93152225 -4.03258322 17.93152225 -6 19 C-6.33 18.34 -6.66 17.68 -7 17 C-13.25837585 22.90075438 -17.32535256 29.24241097 -21 37 C-22.32 36.67 -23.64 36.34 -25 36 C-23.14399763 31.77243906 -20.89574118 28.68886332 -17.8203125 25.2734375 C-14.90908961 21.63753252 -12.51121466 17.67388582 -10.07177734 13.7109375 C-7.20176872 9.10088436 -7.20176872 9.10088436 -5 8 C-4.27840576 6.35636866 -3.60648579 4.68949614 -3 3 C-1.90341064 6.28976808 -2.20046862 7.71303767 -3 11 C-2.34 10.67 -1.68 10.34 -1 10 C-0.53248212 7.64400765 -0.53248212 7.64400765 -0.375 4.9375 C-0.30023438 4.01839844 -0.22546875 3.09929687 -0.1484375 2.15234375 C-0.09945312 1.44207031 -0.05046875 0.73179688 0 0 Z " fill="#FF5918" transform="translate(98,117)"/>
<path d="M0 0 C2.71929057 0 4.4832044 0.05620165 7 1 C8.75 3.0625 8.75 3.0625 10 5 C9 7 9 7 7 8 C7 6.35 7 4.7 7 3 C5.68 3 4.36 3 3 3 C2.95875 3.66 2.9175 4.32 2.875 5 C1.61305812 9.32665788 -0.93008609 12.71836789 -4 16 C-4.66 16 -5.32 16 -6 16 C-5.67 16.99 -5.34 17.98 -5 19 C-3.68 18.34 -2.36 17.68 -1 17 C-1.93590504 18.1055189 -2.87379858 19.20935453 -3.8125 20.3125 C-4.59560547 21.23482422 -4.59560547 21.23482422 -5.39453125 22.17578125 C-9.49090909 26.83030303 -9.49090909 26.83030303 -13 28 C-12.46147465 22.72245155 -11.34981281 18.69962561 -9 14 C-8.34 13.67 -7.68 13.34 -7 13 C-5.98133771 11.34467377 -4.98189187 9.67739862 -4 8 C-3.34 7.34 -2.68 6.68 -2 6 C-1.28591666 4.01643517 -0.61382258 2.01684563 0 0 Z " fill="#FE6119" transform="translate(43,37)"/>
<path d="M0 0 C0.33 0 0.66 0 1 0 C1.1968999 2.35371114 1.38270974 4.7074695 1.5625 7.0625 C1.66691406 8.37347656 1.77132812 9.68445313 1.87890625 11.03515625 C2.02796854 15.91574428 1.66761177 20.23279237 -0.0625 24.8125 C-0.96394915 27.8774271 -1.04095714 29.8539624 -0.9375 33 C-0.83696939 37.47026107 -1.65330258 40.11892349 -4 44 C-4.268125 44.825 -4.53625 45.65 -4.8125 46.5 C-6.53159344 50.11914408 -9.07983462 52.27028019 -12 55 C-12.66 54.67 -13.32 54.34 -14 54 C-13.29423828 53.35998047 -13.29423828 53.35998047 -12.57421875 52.70703125 C-2.35948566 42.45000113 -3.36039176 27.29750788 -2.4296875 13.6953125 C-1.56950431 1.56950431 -1.56950431 1.56950431 0 0 Z " fill="#FE3813" transform="translate(128,71)"/>
<path d="M0 0 C0.66 0.33 1.32 0.66 2 1 C1.32904297 2.12535156 1.32904297 2.12535156 0.64453125 3.2734375 C-4.48052546 11.94997274 -9.15188542 20.68351207 -13 30 C-13.33 30 -13.66 30 -14 30 C-14.125 23.375 -14.125 23.375 -13 20 C-13.99 20.33 -14.98 20.66 -16 21 C-16.02721176 19.10424749 -16.04649136 17.20838021 -16.0625 15.3125 C-16.07410156 14.25675781 -16.08570313 13.20101562 -16.09765625 12.11328125 C-16.00865425 9.27589738 -15.64939838 6.7561081 -15 4 C-12.47613098 6.96280277 -11.60357521 9.17735697 -11 13 C-10.67 13.66 -10.34 14.32 -10 15 C-10 15.33 -10 15.66 -10 16 C-9.52949219 15.18015625 -9.05898438 14.3603125 -8.57421875 13.515625 C-7.95160156 12.43796875 -7.32898437 11.3603125 -6.6875 10.25 C-6.07261719 9.18265625 -5.45773438 8.1153125 -4.82421875 7.015625 C-3.32904649 4.54394837 -1.78623484 2.26439616 0 0 Z " fill="#FE4519" transform="translate(30,67)"/>
<path d="M0 0 C0.66 0.33 1.32 0.66 2 1 C1.60167969 1.43570313 1.20335938 1.87140625 0.79296875 2.3203125 C-2.99090002 6.57371243 -6.39623629 10.61559973 -7.42578125 16.38671875 C-8.0371717 19.16916915 -9.01426967 21.19282773 -10.375 23.6875 C-12.944885 28.64104646 -14.59029748 33.61333182 -16 39 C-16.33 39 -16.66 39 -17 39 C-16.73958333 37.01432292 -16.47916667 35.02864583 -16.21875 33.04296875 C-15.946767 30.84528294 -15.946767 30.84528294 -16 28 C-17.32 29.32 -18.64 30.64 -20 32 C-19.26733512 27.91358743 -17.31342025 24.40525846 -15.4375 20.75 C-15.10814453 20.1003125 -14.77878906 19.450625 -14.43945312 18.78125 C-13.62992435 17.18565706 -12.81544958 15.59257517 -12 14 C-11.34 14 -10.68 14 -10 14 C-9.89429688 13.43667969 -9.78859375 12.87335938 -9.6796875 12.29296875 C-8.88133316 9.59966993 -7.67811934 7.64990598 -6.125 5.3125 C-5.35542969 4.13107422 -5.35542969 4.13107422 -4.5703125 2.92578125 C-3 1 -3 1 0 0 Z " fill="#F21B0F" transform="translate(39,63)"/>
<path d="M0 0 C2.82309528 2.82309528 2.26606409 4.66196414 2.29052734 8.61767578 C2.30060318 9.63759361 2.30060318 9.63759361 2.31088257 10.67811584 C2.32993163 12.93392183 2.33379117 15.18943099 2.3359375 17.4453125 C2.34236425 19.01512779 2.34909252 20.58494188 2.35610962 22.15475464 C2.36810217 25.45183077 2.37178878 28.74880202 2.37060547 32.04589844 C2.37040299 36.25581998 2.39762206 40.46506107 2.43214989 44.67482185 C2.45448074 47.92122433 2.45844101 51.16746522 2.45738602 54.41393661 C2.45973587 55.96477462 2.4685246 57.51561749 2.48405075 59.06637955 C2.62108967 74.17813708 2.62108967 74.17813708 -2 81 C-4.25390625 83.12890625 -4.25390625 83.12890625 -6.5625 84.5625 C-7.70912109 85.30693359 -7.70912109 85.30693359 -8.87890625 86.06640625 C-11 87 -11 87 -14 86 C-12.60034402 83.20068804 -10.38573531 82.48700756 -7.69140625 81.09765625 C-5.68233132 79.95248983 -5.68233132 79.95248983 -4 77 C-3.01 77 -2.02 77 -1 77 C-1.20625 76.38125 -1.4125 75.7625 -1.625 75.125 C-1.74875 74.42375 -1.8725 73.7225 -2 73 C-1.01 72.01 -1.01 72.01 0 71 C0.29407109 67.92235079 0.29407109 67.92235079 0.22705078 64.25537109 C0.22734283 63.56257553 0.22763489 62.86977997 0.22793579 62.1559906 C0.22654031 59.86167966 0.21096919 57.56769184 0.1953125 55.2734375 C0.19158314 53.68446022 0.1887358 52.09548064 0.18673706 50.50650024 C0.17909453 46.32085846 0.15944081 42.1353551 0.1373291 37.94976807 C0.11688396 33.68007276 0.1077382 29.41035513 0.09765625 25.140625 C0.07619543 16.76035309 0.04205211 8.38019375 0 0 Z " fill="#CA535A" transform="translate(144,44)"/>
<path d="M0 0 C0.33 0.99 0.66 1.98 1 3 C-2.32607068 7.6956292 -5.44000369 11.20546795 -11.2578125 12.50390625 C-17.38611757 13.39410347 -21.47468431 12.81112553 -27 10 C-29 7.8125 -29 7.8125 -30 6 C-29.15308594 6.15726563 -28.30617188 6.31453125 -27.43359375 6.4765625 C-17.34631938 8.05213174 -17.34631938 8.05213174 -7.640625 5.8828125 C-6.03205334 4.6660724 -4.5074635 3.33996756 -3 2 C-2.01 2 -1.02 2 0 2 C0 1.34 0 0.68 0 0 Z " fill="#FB4B37" transform="translate(96,27)"/>
<path d="M0 0 C0.03738281 0.72445312 0.07476563 1.44890625 0.11328125 2.1953125 C0.71155451 11.23545879 0.71155451 11.23545879 5.65234375 18.61328125 C8.86622377 20.51166296 11.54291469 20.51587568 15.25 20.6875 C17.14492188 20.78611328 17.14492188 20.78611328 19.078125 20.88671875 C20.04234375 20.92410156 21.0065625 20.96148437 22 21 C18.0141043 23.21831446 14.4940347 23.5470267 10 23 C4.24696503 21.04981865 -0.05032186 18.48752039 -3.8125 13.6875 C-5.35879763 10.18798431 -5.48209401 7.78788154 -5 4 C-1.82051282 0 -1.82051282 0 0 0 Z " fill="#CD141D" transform="translate(20,109)"/>
<path d="M0 0 C0.33 0 0.66 0 1 0 C1.56924597 10.71025754 -0.38027194 20.32056977 -5 30 C-5.33 30 -5.66 30 -6 30 C-5.8608331 26.58302762 -5.71250415 23.16651243 -5.5625 19.75 C-5.52318359 18.78191406 -5.48386719 17.81382813 -5.44335938 16.81640625 C-5.40146484 15.88183594 -5.35957031 14.94726562 -5.31640625 13.984375 C-5.27974854 13.12553711 -5.24309082 12.26669922 -5.20532227 11.38183594 C-5.01296486 9.15039857 -4.61153756 7.15017476 -4 5 C-3.34 5 -2.68 5 -2 5 C-1.34 3.35 -0.68 1.7 0 0 Z " fill="#FE851F" transform="translate(92,74)"/>
<path d="M0 0 C2.39763185 2.39763185 2.34280586 3.33273498 2.625 6.625 C2.69976562 7.44226563 2.77453125 8.25953125 2.8515625 9.1015625 C2.90054688 9.72804688 2.94953125 10.35453125 3 11 C3.66 11 4.32 11 5 11 C5.66 9.35 6.32 7.7 7 6 C7.33 6.99 7.66 7.98 8 9 C9.65 6.36 11.3 3.72 13 1 C13.66 1.33 14.32 1.66 15 2 C14.20928784 3.75043149 13.41739082 5.50032778 12.625 7.25 C12.18414062 8.22453125 11.74328125 9.1990625 11.2890625 10.203125 C10.86367187 11.12609375 10.43828125 12.0490625 10 13 C9.67773438 13.73734375 9.35546875 14.4746875 9.0234375 15.234375 C8 17 8 17 5 19 C4.29618843 20.98723268 3.6288189 22.98777953 3 25 C2.34 25.66 1.68 26.32 1 27 C1.47939368 22.28596212 1.96834048 18.33420699 4 14 C3.34 14 2.68 14 2 14 C1.66179834 12.4176994 1.32964061 10.83410625 1 9.25 C0.814375 8.36828125 0.62875 7.4865625 0.4375 6.578125 C0 4 0 4 0 0 Z " fill="#FE511D" transform="translate(106,69)"/>
<path d="M0 0 C0.33 0 0.66 0 1 0 C1.02887512 3.64581687 1.04675585 7.29160463 1.0625 10.9375 C1.07087891 11.97841797 1.07925781 13.01933594 1.08789062 14.09179688 C1.09111328 15.08115234 1.09433594 16.07050781 1.09765625 17.08984375 C1.10289307 18.00628662 1.10812988 18.92272949 1.11352539 19.86694336 C1 22 1 22 0 23 C-0.16010481 25.73701178 -0.25946828 28.4516759 -0.31640625 31.19140625 C-0.33718735 32.01124496 -0.35796844 32.83108368 -0.37937927 33.67576599 C-0.44496494 36.30458901 -0.50380126 38.93351504 -0.5625 41.5625 C-0.60567667 43.34050561 -0.64929067 45.11850065 -0.69335938 46.89648438 C-0.80065543 51.26421634 -0.90189704 55.63205227 -1 60 C-1.33 60 -1.66 60 -2 60 C-2.04633108 52.61996324 -2.08187308 45.23995782 -2.10362434 37.85980511 C-2.11406363 34.43293307 -2.12822532 31.0061605 -2.15087891 27.5793457 C-2.17675686 23.64014881 -2.18647162 19.70099226 -2.1953125 15.76171875 C-2.20563507 14.53039719 -2.21595764 13.29907562 -2.22659302 12.03044128 C-2.22674408 10.88948502 -2.22689514 9.74852875 -2.22705078 8.57299805 C-2.231492 7.567061 -2.23593323 6.56112396 -2.24050903 5.52470398 C-2 3 -2 3 0 0 Z " fill="#DC000B" transform="translate(63,73)"/>
<path d="M0 0 C1.69162237 3.38324475 0.90077684 7.17784771 0.6875 10.875 C0.63827393 11.73327393 0.58904785 12.59154785 0.53833008 13.47583008 C-0.90723729 36.47309981 -0.90723729 36.47309981 -8.25 43 C-9.11625 43.495 -9.11625 43.495 -10 44 C-10.495 42.515 -10.495 42.515 -11 41 C-10.34 41 -9.68 41 -9 41 C-8.690625 40.360625 -8.38125 39.72125 -8.0625 39.0625 C-7 37 -7 37 -6 36 C-3.84744503 27.84383467 -3.33048116 19.74745791 -2.7890625 11.35546875 C-2.71429688 10.32292969 -2.63953125 9.29039063 -2.5625 8.2265625 C-2.50191406 7.29408691 -2.44132812 6.36161133 -2.37890625 5.40087891 C-2 3 -2 3 0 0 Z " fill="#FE6E19" transform="translate(123,79)"/>
<path d="M0 0 C2.3125 0.9375 2.3125 0.9375 4.3125 2.9375 C3.136875 3.2778125 3.136875 3.2778125 1.9375 3.625 C-1.37382694 5.28066347 -1.523217 6.52781406 -2.6875 9.9375 C-3.6668879 10.95769573 -4.66645449 11.95899805 -5.6875 12.9375 C-6.86324711 15.03739652 -6.86324711 15.03739652 -7.6875 16.9375 C-9.3375 16.6075 -10.9875 16.2775 -12.6875 15.9375 C-12.419375 15.421875 -12.15125 14.90625 -11.875 14.375 C-10.5801039 11.80835712 -10.5801039 11.80835712 -9.375 8.5 C-5.29040557 -0.12303269 -5.29040557 -0.12303269 0 0 Z " fill="#FE721D" transform="translate(43.6875,34.0625)"/>
<path d="M0 0 C2 3 2 3 1.9375 4.8125 C-0.32078631 10.08183473 -3.3668793 13.02127636 -8.5 15.375 C-14.58741153 17.60030754 -20.60497349 17.36084789 -27 17 C-27 16.67 -27 16.34 -27 16 C-26.02417969 15.89042969 -25.04835938 15.78085937 -24.04296875 15.66796875 C-22.77066406 15.50941406 -21.49835938 15.35085937 -20.1875 15.1875 C-18.92292969 15.03667969 -17.65835938 14.88585938 -16.35546875 14.73046875 C-12.98349841 13.99640769 -12.10662304 13.55454289 -10 11 C-9.34 11 -8.68 11 -8 11 C-7.7525 10.443125 -7.505 9.88625 -7.25 9.3125 C-5.77075182 6.57589087 -4.06532561 4.32349131 -2 2 C-1.34 2 -0.68 2 0 2 C0 1.34 0 0.68 0 0 Z " fill="#F8180C" transform="translate(95,14)"/>
<path d="M0 0 C1.32 0.66 2.64 1.32 4 2 C4 2.99 4 3.98 4 5 C2.35 5.33 0.7 5.66 -1 6 C-0.67 4.02 -0.34 2.04 0 0 Z M-2 6 C-2 9 -2 9 -2 9 Z M-6 10 C-5.34 10 -4.68 10 -4 10 C-4.66 13.3 -5.32 16.6 -6 20 C-6.66 20 -7.32 20 -8 20 C-8 28.58 -8 37.16 -8 46 C-8.66 45.67 -9.32 45.34 -10 45 C-12.50538767 32.99592515 -9.92459364 21.3294873 -6 10 Z " fill="#FE5527" transform="translate(91,62)"/>
<path d="M0 0 C2.625 0.375 2.625 0.375 5 1 C1.11097676 6.98942398 -2.60381355 8.99424186 -9.51171875 10.58984375 C-12 11 -12 11 -15 11 C-15 11.66 -15 12.32 -15 13 C-18.63 13.66 -22.26 14.32 -26 15 C-25.67 14.01 -25.34 13.02 -25 12 C-24.13503906 12.06832031 -23.27007812 12.13664062 -22.37890625 12.20703125 C-18.35423964 11.96043318 -16.33998881 10.80801883 -12.9375 8.6875 C-11.43509766 7.76517578 -11.43509766 7.76517578 -9.90234375 6.82421875 C-8.94457031 6.22222656 -7.98679687 5.62023437 -7 5 C-6.09378906 4.47019531 -5.18757813 3.94039062 -4.25390625 3.39453125 C-1.91147883 2.06432661 -1.91147883 2.06432661 0 0 Z " fill="#FE4D19" transform="translate(89,8)"/>
<path d="M0 0 C0.66 0 1.32 0 2 0 C2.375 2.75 2.375 2.75 2 6 C-2.84210526 10 -2.84210526 10 -6 10 C-6.226875 10.556875 -6.45375 11.11375 -6.6875 11.6875 C-8.35896766 14.63246684 -10.55276352 16.68156544 -13 19 C-12.8540111 12.13852159 -9.75607784 7.83485345 -5 3 C-2.83203125 1.80078125 -2.83203125 1.80078125 -1 1 C-0.67 0.67 -0.34 0.34 0 0 Z " fill="#FF8626" transform="translate(95,135)"/>
<path d="M0 0 C0.33 0 0.66 0 1 0 C1.22088615 5.68972255 0.43014435 10.76804684 -0.8125 16.3125 C-1.0609668 17.52776367 -1.0609668 17.52776367 -1.31445312 18.76757812 C-1.48525391 19.54166016 -1.65605469 20.31574219 -1.83203125 21.11328125 C-1.98389893 21.81235596 -2.1357666 22.51143066 -2.29223633 23.23168945 C-3 25 -3 25 -6 27 C-6.41837986 21.03808693 -5.66812228 15.88668495 -4.125 10.125 C-3.95129883 9.47072021 -3.77759766 8.81644043 -3.59863281 8.14233398 C-2.71797882 5.00103631 -1.82771946 2.74157919 0 0 Z " fill="#FC9F2C" transform="translate(27,89)"/>
<path d="M0 0 C2 3 2 3 1.625 5.6875 C1.41875 6.450625 1.2125 7.21375 1 8 C0.195625 8.12375 0.195625 8.12375 -0.625 8.25 C-3.24555281 8.94457553 -3.24555281 8.94457553 -6 11.125 C-9 13 -9 13 -11.1875 12.6171875 C-11.785625 12.41351563 -12.38375 12.20984375 -13 12 C-9.27962423 6.38536697 -6.10282919 2.92935801 0 0 Z " fill="#FFA33B" transform="translate(96,141)"/>
<path d="M0 0 C2.6875 0.875 2.6875 0.875 5 2 C3.81817091 6.59600201 1.5133843 8.48574811 -2.1484375 11.1796875 C-4.49047293 12.21729813 -5.63453507 11.84406458 -8 11 C-8.33 11.99 -8.66 12.98 -9 14 C-8.59579069 8.34106967 -6.79663015 5.97742206 -3 2 C-2.01 1.34 -1.02 0.68 0 0 Z " fill="#FEA83F" transform="translate(71,4)"/>
<path d="M0 0 C1.32 0 2.64 0 4 0 C4.49453762 3.46176337 4.72272483 5.9714264 2.65234375 8.91796875 C-0.84933605 12.52739255 -4.31130307 15.05590615 -9 17 C-9 13 -9 13 -6.75 10.625 C-5.8425 9.75875 -4.935 8.8925 -4 8 C-1.04042062 4.34815827 -1.04042062 4.34815827 0 0 Z " fill="#FE3814" transform="translate(46,40)"/>
<path d="M0 0 C0.33 0 0.66 0 1 0 C1.55140086 12.11039661 1.50998246 25.57001944 -7 35 C-7.495 33.515 -7.495 33.515 -8 32 C-7.34 31.34 -6.68 30.68 -6 30 C-5.19867622 27.14272506 -4.50385028 24.33254037 -3.875 21.4375 C-3.69324219 20.66341797 -3.51148438 19.88933594 -3.32421875 19.09179688 C-2.25503881 14.26440924 -1.85222323 9.87170672 -2.12939453 4.92993164 C-2 3 -2 3 0 0 Z " fill="#FE831F" transform="translate(29,84)"/>
<path d="M0 0 C0.33 0 0.66 0 1 0 C1.05449838 1.72880982 1.09301688 3.45812712 1.125 5.1875 C1.14820312 6.15042969 1.17140625 7.11335938 1.1953125 8.10546875 C0.98809633 11.17641234 0.2529126 13.20779477 -1 16 C-1.55445837 17.59979042 -2.09678756 19.20385302 -2.625 20.8125 C-2.88539062 21.60269531 -3.14578125 22.39289063 -3.4140625 23.20703125 C-3.60742188 23.79871094 -3.80078125 24.39039062 -4 25 C-4.33 25 -4.66 25 -5 25 C-5.20400323 19.14971371 -4.58102948 14.20050045 -3.0625 8.5625 C-2.78889648 7.48452148 -2.78889648 7.48452148 -2.50976562 6.38476562 C-1.15055006 1.15055006 -1.15055006 1.15055006 0 0 Z " fill="#FDA52B" transform="translate(117,92)"/>
<path d="M0 0 C0.99 0.33 1.98 0.66 3 1 C2.06862408 2.29608947 1.1296434 3.58671632 0.1875 4.875 C-0.33457031 5.59429687 -0.85664063 6.31359375 -1.39453125 7.0546875 C-3 9 -3 9 -6 11 C-7.20450304 13.55183404 -7.20450304 13.55183404 -8 16 C-8.33 14.68 -8.66 13.36 -9 12 C-9.66 12 -10.32 12 -11 12 C-11.33 12.66 -11.66 13.32 -12 14 C-11.67 12.02 -11.34 10.04 -11 8 C-10.34 8.33 -9.68 8.66 -9 9 C-8.51789062 8.43410156 -8.03578125 7.86820313 -7.5390625 7.28515625 C-6.59160156 6.18494141 -6.59160156 6.18494141 -5.625 5.0625 C-4.99851562 4.33160156 -4.37203125 3.60070313 -3.7265625 2.84765625 C-2 1 -2 1 0 0 Z " fill="#FEBF66" transform="translate(26,35)"/>
<path d="M0 0 C4.29 0 8.58 0 13 0 C13 0.33 13 0.66 13 1 C11.35 1 9.7 1 8 1 C7.814375 1.70125 7.62875 2.4025 7.4375 3.125 C5.48827039 7.02345922 2.65206981 9.63306834 -1 12 C-1.99 12 -2.98 12 -4 12 C-4 12.66 -4 13.32 -4 14 C-5.32 13.67 -6.64 13.34 -8 13 C-7.37351562 12.61328125 -6.74703125 12.2265625 -6.1015625 11.828125 C-5.28429687 11.30734375 -4.46703125 10.7865625 -3.625 10.25 C-2.81289062 9.73953125 -2.00078125 9.2290625 -1.1640625 8.703125 C1.08555679 6.9326665 1.95906848 5.63092581 3 3 C1.68 2.67 0.36 2.34 -1 2 C-0.67 1.34 -0.34 0.68 0 0 Z " fill="#FF9C2B" transform="translate(73,3)"/>
<path d="M0 0 C-1.21125566 6.20768526 -5.00709367 9.48416179 -10 13 C-10.66 13 -11.32 13 -12 13 C-11.68033924 7.72559742 -8.60963971 4.56176651 -5 1 C-3 0 -3 0 0 0 Z " fill="#FECA70" transform="translate(120,35)"/>
<path d="M0 0 C1.41022938 2.82045877 0.71694726 4.59080486 0.1875 7.6875 C-0.66763231 12.88810059 -1.44079585 18.08738375 -2.125 23.3125 C-2.29257812 24.58738281 -2.46015625 25.86226562 -2.6328125 27.17578125 C-2.75398438 28.10777344 -2.87515625 29.03976563 -3 30 C-3.33 30 -3.66 30 -4 30 C-4.11638426 25.93774179 -4.18731373 21.8759137 -4.25 17.8125 C-4.28351562 16.66201172 -4.31703125 15.51152344 -4.3515625 14.32617188 C-4.36445312 13.21435547 -4.37734375 12.10253906 -4.390625 10.95703125 C-4.41157227 9.93585205 -4.43251953 8.91467285 -4.45410156 7.86254883 C-3.88720473 4.28896531 -2.42939844 2.6164369 0 0 Z " fill="#F52E11" transform="translate(39,68)"/>
<path d="M0 0 C6.52307692 -0.36923077 6.52307692 -0.36923077 8.9375 1.5 C9.288125 1.995 9.63875 2.49 10 3 C9.01 3.33 8.02 3.66 7 4 C7 3.34 7 2.68 7 2 C3.02753742 4.16679777 -0.02890455 6.76244783 -3.25390625 9.890625 C-5 11 -5 11 -7.21484375 10.671875 C-7.80394531 10.45015625 -8.39304687 10.2284375 -9 10 C-8.51789063 9.61328125 -8.03578125 9.2265625 -7.5390625 8.828125 C-6.90742187 8.30734375 -6.27578125 7.7865625 -5.625 7.25 C-4.68527344 6.48429688 -4.68527344 6.48429688 -3.7265625 5.703125 C-1.91687682 3.91800519 -0.99882545 2.32050356 0 0 Z " fill="#FF8828" transform="translate(81,4)"/>
<path d="M0 0 C0.33 0 0.66 0 1 0 C1.33 5.61 1.66 11.22 2 17 C1.01 17.33 0.02 17.66 -1 18 C-1 15.03 -1 12.06 -1 9 C-2.32 9.99 -3.64 10.98 -5 12 C-5.66 11.67 -6.32 11.34 -7 11 C-5.85845641 9.16399255 -4.71165684 7.33125195 -3.5625 5.5 C-2.92441406 4.4790625 -2.28632812 3.458125 -1.62890625 2.40625 C-0.82259766 1.21515625 -0.82259766 1.21515625 0 0 Z " fill="#FE3914" transform="translate(96,110)"/>
<path d="M0 0 C0.99 0.33 1.98 0.66 3 1 C0.19372222 5.74908547 -2.25091453 8.19372222 -7 11 C-7 9.68 -7 8.36 -7 7 C-7.99 7.33 -8.98 7.66 -10 8 C-8.52307692 3.32307692 -8.52307692 3.32307692 -5.875 1.6875 C-4.946875 1.3471875 -4.946875 1.3471875 -4 1 C-4.33 1.99 -4.66 2.98 -5 4 C-4.236875 3.319375 -3.47375 2.63875 -2.6875 1.9375 C-1.800625 1.298125 -0.91375 0.65875 0 0 Z " fill="#FE6C4B" transform="translate(72,61)"/>
<path d="M0 0 C0.95098557 3.47475498 1.13676529 5.5085066 0 9 C-1.53820574 11.43676157 -3.22697426 13.72974195 -5 16 C-7 13 -7 13 -7 10.8125 C-5.50578228 6.61001266 -2.79024643 3.43874407 0 0 Z " fill="#FB4010" transform="translate(81,108)"/>
<path d="M0 0 C1.65 0 3.3 0 5 0 C5 0.99 5 1.98 5 3 C4.34 2.67 3.68 2.34 3 2 C2.75765625 2.84304687 2.5153125 3.68609375 2.265625 4.5546875 C1.93046875 5.65039062 1.5953125 6.74609375 1.25 7.875 C0.92515625 8.96554688 0.6003125 10.05609375 0.265625 11.1796875 C-1 14 -1 14 -3.140625 15.3828125 C-3.75421875 15.58648437 -4.3678125 15.79015625 -5 16 C-5 16.99 -5 17.98 -5 19 C-5.99 19.33 -6.98 19.66 -8 20 C-6.22421921 15.44904551 -4.18893034 11.04515956 -2.12109375 6.62109375 C-1.17069887 4.39909038 -0.4936299 2.35722143 0 0 Z " fill="#FE541B" transform="translate(134,36)"/>
<path d="M0 0 C3 1 3 1 4.1796875 2.671875 C5.22405287 5.63588339 5.19316459 8.11442868 5.125 11.25 C5.10695313 12.32765625 5.08890625 13.4053125 5.0703125 14.515625 C5.04710938 15.33546875 5.02390625 16.1553125 5 17 C4.67 17 4.34 17 4 17 C3.67 13.7 3.34 10.4 3 7 C2.01 7 1.02 7 0 7 C-1.6877081 8.76401402 -1.6877081 8.76401402 -3.1875 11 C-3.71730469 11.7425 -4.24710937 12.485 -4.79296875 13.25 C-5.19128906 13.8275 -5.58960937 14.405 -6 15 C-6.66 14.67 -7.32 14.34 -8 14 C-7.50628906 13.24074219 -7.01257813 12.48148438 -6.50390625 11.69921875 C-5.54291016 10.20841797 -5.54291016 10.20841797 -4.5625 8.6875 C-3.92441406 7.70136719 -3.28632812 6.71523438 -2.62890625 5.69921875 C-0.89384394 3.04723007 -0.89384394 3.04723007 0 0 Z " fill="#FA3D30" transform="translate(93,10)"/>
<path d="M0 0 C0.66 0.33 1.32 0.66 2 1 C-0.01323319 4.20626026 -1.67225526 6.70502973 -4.5 9.25 C-7.93834482 13.03217931 -9.33883737 17.22067734 -11 22 C-12.94158017 18.48375245 -13.18311068 16.0284349 -13 12 C-12.34 12.66 -11.68 13.32 -11 14 C-10.773125 13.4225 -10.54625 12.845 -10.3125 12.25 C-9 10 -9 10 -6.5625 8.0625 C-3.89063052 5.91197091 -2.61568082 3.98900951 -1 1 C-0.67 0.67 -0.34 0.34 0 0 Z " fill="#FFB848" transform="translate(29,35)"/>
<path d="M0 0 C0.33 0 0.66 0 1 0 C1.99 3.63 2.98 7.26 4 11 C6.97 8.03 9.94 5.06 13 2 C13.33 3.32 13.66 4.64 14 6 C11.69403153 8.90381215 9.34320124 10.49016718 6 12 C5.01 12.66 4.02 13.32 3 14 C-0.53286034 9.43672206 -0.32374517 5.50366792 0 0 Z " fill="#FF6819" transform="translate(15,62)"/>
<path d="M0 0 C0.66 0.33 1.32 0.66 2 1 C1.54453941 5.89620131 0.48897047 8.51102953 -3 12 C-5.297101 13.65349412 -7.40848089 14.77491824 -10 16 C-10.99 15.67 -11.98 15.34 -13 15 C-11.60034402 12.20068804 -9.38573531 11.48700756 -6.69140625 10.09765625 C-4.68233132 8.95248983 -4.68233132 8.95248983 -3 6 C-2.01 6 -1.02 6 0 6 C-0.185625 5.38125 -0.37125 4.7625 -0.5625 4.125 C-1 2 -1 2 0 0 Z " fill="#D7353D" transform="translate(143,115)"/>
<path d="M0 0 C0.33 0.99 0.66 1.98 1 3 C-4.50578539 7.58815449 -7.48390426 9.27032191 -14.75 9.125 C-15.92046875 9.10695312 -17.0909375 9.08890625 -18.296875 9.0703125 C-19.63492188 9.03550781 -19.63492188 9.03550781 -21 9 C-17.9802306 6.37683626 -16.10008965 5.66775938 -12.125 5.5625 C-6.84474731 5.19592411 -3.78442716 3.78442716 0 0 Z " fill="#FE6A37" transform="translate(94,148)"/>
<path d="M0 0 C0.66 0.33 1.32 0.66 2 1 C-1.52195497 5.80266587 -4.15366432 8.12082067 -10 10 C-12.9375 10.1875 -12.9375 10.1875 -15 10 C-12.49720383 7.15668734 -9.71102186 5.62663153 -6.375 3.875 C-2.97245617 2.24341581 -2.97245617 2.24341581 0 0 Z " fill="#FE5414" transform="translate(86,18)"/>
<path d="M0 0 C1.26026798 2.52053595 0.91874445 3.8542098 0.5625 6.625 C0.46066406 7.44226563 0.35882813 8.25953125 0.25390625 9.1015625 C0.17011719 9.72804687 0.08632812 10.35453125 0 11 C0.66 10.67 1.32 10.34 2 10 C1.25 12.4375 1.25 12.4375 0 15 C-2.078125 15.66015625 -2.078125 15.66015625 -4 16 C-4.47617251 9.30713088 -4.39973696 5.22468764 0 0 Z " fill="#DD0B0E" transform="translate(71,119)"/>
<path d="M0 0 C0.66 0.99 1.32 1.98 2 3 C7.445 2.505 7.445 2.505 13 2 C8.22053425 5.58459931 6.80588017 6.12621479 1 6 C0.67 8.31 0.34 10.62 0 13 C-2.4294516 9.3558226 -2.16179575 7.28758728 -2 3 C-1.34 3 -0.68 3 0 3 C0 2.01 0 1.02 0 0 Z " fill="#FE6530" transform="translate(63,15)"/>
<path d="M0 0 C0.66 0.33 1.32 0.66 2 1 C2 1.99 2 2.98 2 4 C0.3203125 5.53515625 0.3203125 5.53515625 -1.875 7.0625 C-4.11013087 8.63670507 -6.06257966 10.06257966 -8 12 C-8.75 10.3125 -8.75 10.3125 -9 8 C-6.61782267 4.2434896 -4.02070339 1.90454371 0 0 Z " fill="#FA2711" transform="translate(77,140)"/>
<path d="M0 0 C0.66 0.33 1.32 0.66 2 1 C1.20928784 2.75043149 0.41739082 4.50032778 -0.375 6.25 C-0.81585938 7.22453125 -1.25671875 8.1990625 -1.7109375 9.203125 C-2.13632813 10.12609375 -2.56171875 11.0490625 -3 12 C-3.30164063 12.73734375 -3.60328125 13.4746875 -3.9140625 14.234375 C-5.27238324 16.44286772 -6.62792486 17.05116994 -9 18 C-7.14086809 11.10164214 -4.20484217 5.75614317 0 0 Z " fill="#FE4016" transform="translate(119,70)"/>
<path d="M0 0 C1.54632068 3.09264137 0.64602195 6.12179367 0.1875 9.4375 C0.10435547 10.11876953 0.02121094 10.80003906 -0.06445312 11.50195312 C-0.53477545 15.00705603 -1.00548311 17.00822466 -3 20 C-4.7610915 7.27037119 -4.7610915 7.27037119 -2.0625 2.6875 C-1.381875 1.800625 -0.70125 0.91375 0 0 Z " fill="#FE8D21" transform="translate(121,83)"/>
<path d="M0 0 C1.32 0.33 2.64 0.66 4 1 C-0.19348701 6.36613383 -3.4591516 9.86421277 -10 12 C-8.43870938 7.78451534 -5.41308287 5.77312983 -2 3 C-1.34 2.01 -0.68 1.02 0 0 Z " fill="#FF4A24" transform="translate(75,64)"/>
<path d="M0 0 C0.33 0 0.66 0 1 0 C1 8.25 1 16.5 1 25 C0.34 24.67 -0.32 24.34 -1 24 C-2.90587128 15.94615685 -1.53735756 7.99171821 0 0 Z " fill="#FF5018" transform="translate(82,83)"/>
<path d="M0 0 C0.12375 1.134375 0.2475 2.26875 0.375 3.4375 C0.684375 5.2009375 0.684375 5.2009375 1 7 C1.66 7.33 2.32 7.66 3 8 C2.34 9.65 1.68 11.3 1 13 C0.34 13 -0.32 13 -1 13 C-1.33 10.69 -1.66 8.38 -2 6 C-2.66 6.66 -3.32 7.32 -4 8 C-4 5.69 -4 3.38 -4 1 C-2 0 -2 0 0 0 Z M4 5 C4.66 5.33 5.32 5.66 6 6 C5.01 6 4.02 6 3 6 C3.33 5.67 3.66 5.34 4 5 Z " fill="#FD2F1E" transform="translate(65,68)"/>
<path d="M0 0 C7.425 0.99 7.425 0.99 15 2 C15 2.66 15 3.32 15 4 C16.32 4.33 17.64 4.66 19 5 C12.96192797 5.21868269 7.66715377 5.24324837 2 3 C1.34 2.01 0.68 1.02 0 0 Z " fill="#EF281B" transform="translate(66,33)"/>
<path d="M0 0 C2.91387197 0.2913872 3.82565583 0.79452294 5.75 3.0625 C6.36875 4.0215625 6.36875 4.0215625 7 5 C6 7 6 7 4 8 C4 6.35 4 4.7 4 3 C2.68 3 1.36 3 0 3 C-0.12375 3.763125 -0.2475 4.52625 -0.375 5.3125 C-1 8 -1 8 -3 11 C-3.66 10.67 -4.32 10.34 -5 10 C-4.35699811 8.51960029 -3.71051501 7.04071218 -3.0625 5.5625 C-2.70285156 4.73878906 -2.34320313 3.91507813 -1.97265625 3.06640625 C-1 1 -1 1 0 0 Z " fill="#FF4718" transform="translate(46,37)"/>
<path d="M0 0 C0 3.73837399 -0.87486844 4.27919685 -3.375 6.9375 C-5.80684041 9.53446538 -7.42486401 11.82918278 -9 15 C-9.99 15.495 -9.99 15.495 -11 16 C-11.65795898 14.18847656 -11.65795898 14.18847656 -12 12 C-10.08065216 9.70983534 -8.23652142 7.76718302 -6.0625 5.75 C-5.48564453 5.19570313 -4.90878906 4.64140625 -4.31445312 4.0703125 C-2.88722271 2.70205855 -1.44497942 1.3494962 0 0 Z " fill="#F82212" transform="translate(48,48)"/>
<path d="M0 0 C0.33 0 0.66 0 1 0 C1.30062652 7.21503643 1.12969572 13.80545641 -3 20 C-3.35482211 12.78528371 -2.1591338 6.87581298 0 0 Z " fill="#FEA120" transform="translate(92,76)"/>
<path d="M0 0 C0.33 0 0.66 0 1 0 C1.1968999 2.35371114 1.38270974 4.7074695 1.5625 7.0625 C1.66691406 8.37347656 1.77132812 9.68445313 1.87890625 11.03515625 C1.99765619 14.92325897 1.66866216 18.19110223 1 22 C0.67 22 0.34 22 0 22 C-0.911572 17.34808893 -1.13429756 12.9246071 -1.125 8.1875 C-1.12886719 7.50751953 -1.13273437 6.82753906 -1.13671875 6.12695312 C-1.12674825 1.12674825 -1.12674825 1.12674825 0 0 Z " fill="#F62E11" transform="translate(128,71)"/>
<path d="M0 0 C0.33 0 0.66 0 1 0 C1 1.65 1 3.3 1 5 C0.34 5 -0.32 5 -1 5 C-1.33 5.99 -1.66 6.98 -2 8 C-5.41482003 10.56111503 -7.74808535 11.36444983 -12 11 C-10.13350122 8.92611246 -8.37227132 7.59459189 -6 6.0625 C-3.26831156 4.1844642 -1.8282976 2.6943333 0 0 Z " fill="#C8010A" transform="translate(96,20)"/>
<path d="M0 0 C2.97 0.33 5.94 0.66 9 1 C8.34 2.32 7.68 3.64 7 5 C4.9375 5.625 4.9375 5.625 3 6 C2.67 6.66 2.34 7.32 2 8 C-0.1519437 4.77208445 -0.20086443 3.71599191 0 0 Z " fill="#F93020" transform="translate(63,25)"/>
<path d="M0 0 C2.06183633 -0.08150744 4.12461349 -0.1394194 6.1875 -0.1875 C7.33605469 -0.22230469 8.48460938 -0.25710937 9.66796875 -0.29296875 C13.27039199 0.02377421 15.09366839 0.91466602 18 3 C14.91556746 4.54221627 12.36375719 3.54254148 9 3 C7.54182106 2.85263085 6.08348833 2.70677493 4.625 2.5625 C3.42875 2.376875 2.2325 2.19125 1 2 C0.67 1.34 0.34 0.68 0 0 Z " fill="#FE5E37" transform="translate(73,58)"/>
<path d="M0 0 C0.66 0.33 1.32 0.66 2 1 C1.46073515 2.63285782 0.89260746 4.25620212 0.3125 5.875 C-0.00074219 6.77992187 -0.31398438 7.68484375 -0.63671875 8.6171875 C-2.33696793 11.58896973 -3.77553449 12.06955722 -7 13 C-6.731875 12.484375 -6.46375 11.96875 -6.1875 11.4375 C-5.21937112 9.45028809 -4.34518643 7.41753387 -3.5 5.375 C-2 2 -2 2 0 0 Z " fill="#FE8421" transform="translate(38,37)"/>
<path d="M0 0 C0.66 0.33 1.32 0.66 2 1 C1.9375 2.75 1.9375 2.75 1 5 C-0.70606101 6.07418656 -2.41851823 7.14740726 -4.2109375 8.0703125 C-6.2536305 9.09069407 -6.2536305 9.09069407 -9 11 C-11.33199388 11.07905064 -13.66832622 11.08798769 -16 11 C-15.42378906 10.71253906 -14.84757812 10.42507812 -14.25390625 10.12890625 C-12.82210175 9.41176327 -11.39217964 8.69083993 -9.96484375 7.96484375 C-9.29582031 7.62582031 -8.62679687 7.28679688 -7.9375 6.9375 C-7.26589844 6.59589844 -6.59429687 6.25429688 -5.90234375 5.90234375 C-4 5 -4 5 -1 4 C-0.26676204 1.98491642 -0.26676204 1.98491642 0 0 Z " fill="#E00F0E" transform="translate(95,24)"/>
<path d="M0 0 C0.8125 1.6875 0.8125 1.6875 1 4 C-1.4375 6.75 -1.4375 6.75 -4 9 C-4.99 8.67 -5.98 8.34 -7 8 C-6.02133662 6.85373678 -5.04205413 5.70800212 -4.0625 4.5625 C-3.51722656 3.92441406 -2.97195312 3.28632812 -2.41015625 2.62890625 C-1.63204305 1.73008851 -0.84063472 0.84063472 0 0 Z " fill="#FD3312" transform="translate(141,41)"/>
<path d="M0 0 C2.1875 0.3125 2.1875 0.3125 4 1 C-0.86744914 5.73935838 -5.44418777 7.40639347 -12 9 C-9.30670327 6.11432493 -6.52770084 4.76385042 -3 3 C-2.46375 2.4225 -1.9275 1.845 -1.375 1.25 C-0.92125 0.8375 -0.4675 0.425 0 0 Z " fill="#FF5D19" transform="translate(89,8)"/>
<path d="M0 0 C0.99 0.66 1.98 1.32 3 2 C5.38677076 2.29452584 7.78626094 2.4928217 10.1875 2.625 C11.45980469 2.69976562 12.73210938 2.77453125 14.04296875 2.8515625 C15.01878906 2.90054688 15.99460937 2.94953125 17 3 C13.02407518 5.21276525 9.48488826 5.57413226 5 5 C2.51027199 4.18884568 0.35327917 3.17663958 -2 2 C-1.34 1.34 -0.68 0.68 0 0 Z " fill="#D54247" transform="translate(25,127)"/>
<path d="M0 0 C0.99 0 1.98 0 3 0 C1.4114658 4.28904235 -1.43127368 6.32345526 -5 9 C-5.66 9 -6.32 9 -7 9 C-7 8.01 -7 7.02 -7 6 C-6.21625 5.7525 -5.4325 5.505 -4.625 5.25 C-1.67682892 3.84610901 -1.0975223 2.99324263 0 0 Z " fill="#D42A31" transform="translate(49,121)"/>
<path d="M0 0 C0.81571335 2.35241204 1.11686468 3.62646319 0.36328125 6.03515625 C-3.14000782 12.79429018 -3.14000782 12.79429018 -7 15 C-7.33 14.01 -7.66 13.02 -8 12 C-7.34 12 -6.68 12 -6 12 C-5.71382813 11.42765625 -5.42765625 10.8553125 -5.1328125 10.265625 C-3.421875 6.84375 -1.7109375 3.421875 0 0 Z " fill="#FE6014" transform="translate(120,108)"/>
<path d="M0 0 C0.99 0.33 1.98 0.66 3 1 C1.71451591 2.33929505 0.42141845 3.67128643 -0.875 5 C-1.59429688 5.7425 -2.31359375 6.485 -3.0546875 7.25 C-5 9 -5 9 -7 9 C-6.75881648 5.74402242 -5.47775788 4.2723696 -3.125 2.1875 C-2.09375 1.465625 -1.0625 0.74375 0 0 Z " fill="#FEE4A8" transform="translate(26,35)"/>
<path d="M0 0 C0.33 1.32 0.66 2.64 1 4 C2.32 3.67 3.64 3.34 5 3 C4.8125 4.875 4.8125 4.875 4 7 C1.4375 8.25 1.4375 8.25 -1 9 C-2.1875 7.3125 -2.1875 7.3125 -3 5 C-1.625 2.25 -1.625 2.25 0 0 Z " fill="#FF671C" transform="translate(93,127)"/>
<path d="M0 0 C3.98175544 2.10148204 6.35039045 4.36905358 9 8 C8.01 8.495 8.01 8.495 7 9 C1.21538462 5.67692308 1.21538462 5.67692308 0.125 2.25 C0.08375 1.5075 0.0425 0.765 0 0 Z " fill="#CF292F" transform="translate(109,121)"/>
<path d="M0 0 C0.7425 0.2475 1.485 0.495 2.25 0.75 C-0.10519526 4.54448125 -2.7130133 5.95578369 -6.75 7.75 C-6.75 3.75 -6.75 3.75 -5.0625 1.4375 C-2.75 -0.25 -2.75 -0.25 0 0 Z " fill="#FE4816" transform="translate(43.75,49.25)"/>
<path d="M0 0 C-0.38520564 2.53910197 -0.70097943 3.72751123 -2.62890625 5.484375 C-3.26699219 5.90203125 -3.90507813 6.3196875 -4.5625 6.75 C-5.20316406 7.17796875 -5.84382813 7.6059375 -6.50390625 8.046875 C-7.24447266 8.51867187 -7.24447266 8.51867187 -8 9 C-7.64598897 5.81390075 -7.16972964 4.20933322 -5.125 1.6875 C-3 0 -3 0 0 0 Z " fill="#FEE2A6" transform="translate(117,37)"/>
<path d="M0 0 C0.33 0.99 0.66 1.98 1 3 C0.34 3.66 -0.32 4.32 -1 5 C-1.474375 6.175625 -1.94875 7.35125 -2.4375 8.5625 C-2.953125 9.696875 -3.46875 10.83125 -4 12 C-4.99 12.33 -5.98 12.66 -7 13 C-6.36610765 9.50155614 -4.94822306 7.15913124 -2.9375 4.25 C-2.38964844 3.45078125 -1.84179688 2.6515625 -1.27734375 1.828125 C-0.85582031 1.22484375 -0.43429688 0.6215625 0 0 Z " fill="#FF6C1C" transform="translate(84,141)"/>
<path d="M0 0 C0.66 0 1.32 0 2 0 C1.67 3.3 1.34 6.6 1 10 C1.66 10 2.32 10 3 10 C2.625 11.9375 2.625 11.9375 2 14 C1.01 14.495 1.01 14.495 0 15 C-0.19390729 12.68802845 -0.37996367 10.3753971 -0.5625 8.0625 C-0.71912109 6.13083984 -0.71912109 6.13083984 -0.87890625 4.16015625 C-0.91886719 3.11730469 -0.95882813 2.07445313 -1 1 C-0.67 0.67 -0.34 0.34 0 0 Z " fill="#FA1B11" transform="translate(15,87)"/>
<path d="M0 0 C1.10493755 3.31481265 1.05432279 5.66131116 0 9 C-0.99 9.66 -1.98 10.32 -3 11 C-3.36923077 4.6 -3.36923077 4.6 -1.5 1.5625 C-1.005 1.046875 -0.51 0.53125 0 0 Z " fill="#FD5912" transform="translate(81,108)"/>
<path d="M0 0 C4.75 0.75 4.75 0.75 7 3 C5.824375 3.37125 5.824375 3.37125 4.625 3.75 C1.67682892 5.15389099 1.0975223 6.00675737 0 9 C-1.15941038 5.52176885 -0.70820884 3.54104422 0 0 Z " fill="#FE6627" transform="translate(41,34)"/>
<path d="M0 0 C1.32 0 2.64 0 4 0 C2.63016497 3.16115776 2.0109362 3.9927092 -1 6 C-1.99 5.67 -2.98 5.34 -4 5 C-2.25 2.5 -2.25 2.5 0 0 Z " fill="#FFC970" transform="translate(90,147)"/>
<path d="M0 0 C0.33 0.99 0.66 1.98 1 3 C-4.75 7 -4.75 7 -7 7 C-7.66 8.32 -8.32 9.64 -9 11 C-9.33 10.34 -9.66 9.68 -10 9 C-6.83047153 5.73991357 -3.60062011 2.77762123 0 0 Z " fill="#FF942C" transform="translate(96,138)"/>
<path d="M0 0 C0.99 0.33 1.98 0.66 3 1 C2.01 1.33 1.02 1.66 0 2 C-0.309375 2.639375 -0.61875 3.27875 -0.9375 3.9375 C-2.2342338 6.45468915 -3.4221737 6.96886948 -6 8 C-5.66354211 4.85972637 -4.94763914 3.94901705 -2.625 1.6875 C-1.75875 1.130625 -0.8925 0.57375 0 0 Z " fill="#FFB46B" transform="translate(72,61)"/>
<path d="M0 0 C0.33 0.99 0.66 1.98 1 3 C-0.109375 4.7890625 -0.109375 4.7890625 -1.75 6.625 C-2.28109375 7.23601563 -2.8121875 7.84703125 -3.359375 8.4765625 C-5 10 -5 10 -8 11 C-6.63629701 8.00779732 -5.05091917 5.70973471 -2.875 3.25 C-2.33617188 2.63640625 -1.79734375 2.0228125 -1.2421875 1.390625 C-0.62730469 0.70226562 -0.62730469 0.70226562 0 0 Z " fill="#EB090B" transform="translate(96,17)"/>
<path d="M0 0 C0.33 0 0.66 0 1 0 C1.3125 2.1875 1.3125 2.1875 1 5 C-1.5 7.8125 -1.5 7.8125 -4 10 C-4.66 9.67 -5.32 9.34 -6 9 C-5.02501855 7.4972763 -4.04490611 5.99788037 -3.0625 4.5 C-2.51722656 3.6646875 -1.97195312 2.829375 -1.41015625 1.96875 C-0.94480469 1.3190625 -0.47945313 0.669375 0 0 Z " fill="#F73112" transform="translate(95,112)"/>
<path d="M0 0 C0.99 0 1.98 0 3 0 C2.07506212 3.78383679 1.60628829 5.56693694 -1.625 7.875 C-2.40875 8.24625 -3.1925 8.6175 -4 9 C-2.80100302 5.9168649 -1.52299523 2.93720508 0 0 Z " fill="#FFA532" transform="translate(122,34)"/>
<path d="M0 0 C0.78375 0.04125 1.5675 0.0825 2.375 0.125 C2 2.5625 2 2.5625 1.375 5.125 C0.385 5.62 0.385 5.62 -0.625 6.125 C-0.955 5.465 -1.285 4.805 -1.625 4.125 C-2.615 3.465 -3.605 2.805 -4.625 2.125 C-2.625 0.125 -2.625 0.125 0 0 Z " fill="#FEAB50" transform="translate(95.625,143.875)"/>
<path d="M0 0 C0.33 0 0.66 0 1 0 C1.05410687 1.77049689 1.09284119 3.54146849 1.125 5.3125 C1.14820312 6.29863281 1.17140625 7.28476563 1.1953125 8.30078125 C1 11 1 11 -1 14 C-1.99 14 -2.98 14 -4 14 C-3.67 12.68 -3.34 11.36 -3 10 C-2.34 10 -1.68 10 -1 10 C-0.67 6.7 -0.34 3.4 0 0 Z " fill="#FD4923" transform="translate(98,117)"/>
<path d="M0 0 C0.66 0 1.32 0 2 0 C2.33 2.31 2.66 4.62 3 7 C1.68 7.33 0.36 7.66 -1 8 C-1.125 2.25 -1.125 2.25 0 0 Z " fill="#FE321C" transform="translate(15,80)"/>
<path d="M0 0 C1.09898702 3.29696105 0.87124444 4.40494903 0.0625 7.6875 C-0.13214844 8.49574219 -0.32679688 9.30398437 -0.52734375 10.13671875 C-0.76130859 11.05904297 -0.76130859 11.05904297 -1 12 C-1.33 12 -1.66 12 -2 12 C-2.05395478 10.37536158 -2.09277195 8.75021459 -2.125 7.125 C-2.14820313 6.22007813 -2.17140625 5.31515625 -2.1953125 4.3828125 C-2 2 -2 2 0 0 Z " fill="#ED1F0E" transform="translate(131,67)"/>
<path d="M0 0 C0 3.58912412 -0.66436554 4.10857029 -3 6.6875 C-3.556875 7.31011719 -4.11375 7.93273437 -4.6875 8.57421875 C-5.120625 9.04472656 -5.55375 9.51523438 -6 10 C-6 6.61976483 -5.12544378 4.16531063 -4 1 C-3.01 1 -2.02 1 -1 1 C-0.67 0.67 -0.34 0.34 0 0 Z " fill="#FE7224" transform="translate(128,57)"/>
<path d="M0 0 C3.3 0 6.6 0 10 0 C9.34 1.65 8.68 3.3 8 5 C7.01 5 6.02 5 5 5 C5.66 3.68 6.32 2.36 7 1 C4.69 1 2.38 1 0 1 C0 0.67 0 0.34 0 0 Z " fill="#FF8F20" transform="translate(29,33)"/>
<path d="M0 0 C-1.28519565 2.86697492 -2.57129254 4.97607712 -5 7 C-5.66 7 -6.32 7 -7 7 C-4.60526316 0 -4.60526316 0 0 0 Z " fill="#FEE6A8" transform="translate(73,7)"/>
<path d="M0 0 C0 0.66 0 1.32 0 2 C-1.95890881 3.39300182 -3.9639118 4.72245446 -6 6 C-6.99 6.66 -7.98 7.32 -9 8 C-7.13554727 3.64961029 -5.02378599 0 0 0 Z " fill="#FE3825" transform="translate(74,59)"/>
<path d="M0 0 C1.32 0 2.64 0 4 0 C2.73058503 3.91402949 1.48832306 5.79072873 -2 8 C-2.66 7.67 -3.32 7.34 -4 7 C-3.34 6.401875 -2.68 5.80375 -2 5.1875 C0.3373846 3.12498166 0.3373846 3.12498166 0 0 Z " fill="#FFBC54" transform="translate(72,6)"/>
<path d="M0 0 C0.33 0 0.66 0 1 0 C1.08159574 4.16138263 0.98248524 7.9472484 0 12 C-0.33 12 -0.66 12 -1 12 C-1.2226746 10.56465159 -1.42761906 9.12654475 -1.625 7.6875 C-1.74101562 6.88699219 -1.85703125 6.08648437 -1.9765625 5.26171875 C-2 3 -2 3 0 0 Z " fill="#FE9A27" transform="translate(27,89)"/>
<path d="M0 0 C-1 3 -1 3 -2.875 4.25 C-5 5 -5 5 -8 4 C-6.27302455 0.54604909 -3.70696841 0 0 0 Z " fill="#D12A2F" transform="translate(138,126)"/>
<path d="M0 0 C-1.75 5.75 -1.75 5.75 -4 8 C-4 5.69 -4 3.38 -4 1 C-2 0 -2 0 0 0 Z " fill="#FA1B25" transform="translate(65,68)"/>
<path d="M0 0 C0 3.58912412 -0.66436554 4.10857029 -3 6.6875 C-3.556875 7.31011719 -4.11375 7.93273438 -4.6875 8.57421875 C-5.120625 9.04472656 -5.55375 9.51523437 -6 10 C-6.66 9.34 -7.32 8.68 -8 8 C-5.36 5.36 -2.72 2.72 0 0 Z " fill="#F60F11" transform="translate(48,48)"/>
<path d="M0 0 C4.29 0 8.58 0 13 0 C13 0.33 13 0.66 13 1 C10.36 1.66 7.72 2.32 5 3 C5 2.34 5 1.68 5 1 C3.35 1 1.7 1 0 1 C0 0.67 0 0.34 0 0 Z " fill="#FEA03F" transform="translate(73,3)"/>
<path d="M0 0 C0.33 0.99 0.66 1.98 1 3 C-0.65 4.32 -2.3 5.64 -4 7 C-4.66 6.67 -5.32 6.34 -6 6 C-4 4 -2 2 0 0 Z " fill="#FE822F" transform="translate(94,148)"/>
<path d="M0 0 C0.33 0 0.66 0 1 0 C1 2.31 1 4.62 1 7 C1.66 7 2.32 7 3 7 C3 8.32 3 9.64 3 11 C2.01 10.67 1.02 10.34 0 10 C0 6.7 0 3.4 0 0 Z " fill="#D0030E" transform="translate(61,134)"/>
<path d="M0 0 C2.52259061 1.97420135 2.9929808 2.96745642 3.6875 6.1875 C3.790625 7.115625 3.89375 8.04375 4 9 C3.01 8.67 2.02 8.34 1 8 C0.67 5.36 0.34 2.72 0 0 Z " fill="#FF771E" transform="translate(106,60)"/>
<path d="M0 0 C0.33 1.32 0.66 2.64 1 4 C1.99 3.67 2.98 3.34 4 3 C3.34 5.31 2.68 7.62 2 10 C-0.09350689 6.5980513 -0.17942163 3.94727588 0 0 Z " fill="#FFAC3D" transform="translate(16,47)"/>
<path d="M0 0 C1.9375 0.625 1.9375 0.625 4 2 C4.75 5.125 4.75 5.125 5 8 C2.20127563 5.47211993 0.54226981 3.79588866 0 0 Z " fill="#DB444A" transform="translate(61,144)"/>
<path d="M0 0 C1.65 1.65 3.3 3.3 5 5 C4 7 4 7 2 8 C2 6.35 2 4.7 2 3 C1.01 3 0.02 3 -1 3 C-0.67 2.01 -0.34 1.02 0 0 Z " fill="#FB594A" transform="translate(48,37)"/>
<path d="M0 0 C0.99 0 1.98 0 3 0 C3 0.66 3 1.32 3 2 C3.66 2.33 4.32 2.66 5 3 C4.01 3.33 3.02 3.66 2 4 C1.34 3.67 0.68 3.34 0 3 C-0.33 3.99 -0.66 4.98 -1 6 C-0.67 4.02 -0.34 2.04 0 0 Z " fill="#FE9A4C" transform="translate(63,12)"/>
</svg>
